<svg width="60" height="60" viewBox="0 0 60 60" fill="none" xmlns="http://www.w3.org/2000/svg">
<path fill-rule="evenodd" clip-rule="evenodd" d="M30 0C13.4315 0 0 13.4315 0 30C0 46.5685 13.4315 60 30 60C46.5685 60 60 46.5685 60 30C60 13.4315 46.5685 0 30 0ZM30.5858 20.5858L22.5858 28.5858C21.8047 29.3668 21.8047 30.6332 22.5858 31.4142L30.5858 39.4142C31.3668 40.1953 32.6332 40.1953 33.4142 39.4142C34.1953 38.6332 34.1953 37.3668 33.4142 36.5858L26.8284 30L33.4142 23.4142C34.1953 22.6332 34.1953 21.3668 33.4142 20.5858C32.6332 19.8047 31.3668 19.8047 30.5858 20.5858Z" fill="#F00264"/>
</svg>
