<svg width="60" height="60" viewBox="0 0 60 60" fill="none" xmlns="http://www.w3.org/2000/svg">
<path fill-rule="evenodd" clip-rule="evenodd" d="M30 57C15.0883 57 3 44.9117 3 30C3 15.0883 15.0883 3 30 3C44.9117 3 57 15.0883 57 30C57 44.9117 44.9117 57 30 57ZM0 30C0 13.4315 13.4315 0 30 0C46.5685 0 60 13.4315 60 30C60 46.5685 46.5685 60 30 60C13.4315 60 0 46.5685 0 30ZM30.5858 20.5858L22.5858 28.5858C21.8047 29.3668 21.8047 30.6332 22.5858 31.4142L30.5858 39.4142C31.3668 40.1953 32.6332 40.1953 33.4142 39.4142C34.1953 38.6332 34.1953 37.3668 33.4142 36.5858L26.8284 30L33.4142 23.4142C34.1953 22.6332 34.1953 21.3668 33.4142 20.5858C32.6332 19.8047 31.3668 19.8047 30.5858 20.5858Z" fill="#333333"/>
</svg>
