<svg width="60" height="60" viewBox="0 0 60 60" fill="none" xmlns="http://www.w3.org/2000/svg">
<path fill-rule="evenodd" clip-rule="evenodd" d="M30 57C15.0883 57 3 44.9117 3 30C3 15.0883 15.0883 3 30 3C44.9117 3 57 15.0883 57 30C57 44.9117 44.9117 57 30 57ZM0 30C0 13.4315 13.4315 0 30 0C46.5685 0 60 13.4315 60 30C60 46.5685 46.5685 60 30 60C13.4315 60 0 46.5685 0 30ZM29.4142 20.5858L37.4142 28.5858C38.1953 29.3668 38.1953 30.6332 37.4142 31.4142L29.4142 39.4142C28.6332 40.1953 27.3668 40.1953 26.5858 39.4142C25.8047 38.6332 25.8047 37.3668 26.5858 36.5858L33.1716 30L26.5858 23.4142C25.8047 22.6332 25.8047 21.3668 26.5858 20.5858C27.3668 19.8047 28.6332 19.8047 29.4142 20.5858Z" fill="#333333"/>
</svg>
