<svg width="100" height="40" viewBox="0 0 180 60" fill="none" xmlns="http://www.w3.org/2000/svg">
<rect x="1" y="1" width="178" height="58" rx="29" fill="white" stroke="black" stroke-width="2"/>
<path d="M58.226 39V22.2H60.77L66.89 32.16L65.666 32.136L71.858 22.2H74.258V39H71.666V32.112C71.666 30.672 71.698 29.376 71.762 28.224C71.842 27.072 71.97 25.928 72.146 24.792L72.482 25.68L66.986 34.176H65.402L60.074 25.776L60.338 24.792C60.514 25.864 60.634 26.968 60.698 28.104C60.778 29.224 60.818 30.56 60.818 32.112V39H58.226ZM82.9282 39.24C81.8882 39.24 80.9362 38.952 80.0722 38.376C79.2242 37.8 78.5442 37.016 78.0322 36.024C77.5202 35.032 77.2642 33.912 77.2642 32.664C77.2642 31.4 77.5202 30.28 78.0322 29.304C78.5602 28.312 79.2642 27.536 80.1442 26.976C81.0402 26.416 82.0402 26.136 83.1442 26.136C83.8002 26.136 84.4002 26.232 84.9442 26.424C85.4882 26.616 85.9602 26.888 86.3602 27.24C86.7762 27.576 87.1122 27.968 87.3682 28.416C87.6402 28.864 87.8082 29.344 87.8722 29.856L87.3202 29.664V26.4H89.8162V39H87.3202V36L87.8962 35.832C87.8002 36.264 87.6002 36.688 87.2962 37.104C87.0082 37.504 86.6322 37.864 86.1682 38.184C85.7202 38.504 85.2162 38.76 84.6562 38.952C84.1122 39.144 83.5362 39.24 82.9282 39.24ZM83.5762 36.96C84.3282 36.96 84.9922 36.776 85.5682 36.408C86.1442 36.04 86.5922 35.536 86.9122 34.896C87.2482 34.24 87.4162 33.496 87.4162 32.664C87.4162 31.848 87.2482 31.12 86.9122 30.48C86.5922 29.84 86.1442 29.336 85.5682 28.968C84.9922 28.6 84.3282 28.416 83.5762 28.416C82.8402 28.416 82.1842 28.6 81.6082 28.968C81.0482 29.336 80.6002 29.84 80.2642 30.48C79.9442 31.12 79.7842 31.848 79.7842 32.664C79.7842 33.496 79.9442 34.24 80.2642 34.896C80.6002 35.536 81.0482 36.04 81.6082 36.408C82.1842 36.776 82.8402 36.96 83.5762 36.96ZM98.6437 44.52C97.7477 44.52 96.8517 44.376 95.9557 44.088C95.0757 43.816 94.3637 43.456 93.8197 43.008L94.7317 41.088C95.0517 41.328 95.4277 41.536 95.8597 41.712C96.2917 41.904 96.7477 42.048 97.2277 42.144C97.7077 42.256 98.1797 42.312 98.6437 42.312C99.5237 42.312 100.26 42.168 100.852 41.88C101.444 41.592 101.892 41.168 102.196 40.608C102.5 40.048 102.652 39.352 102.652 38.52V36.096L102.916 36.264C102.836 36.76 102.572 37.24 102.124 37.704C101.692 38.152 101.148 38.52 100.492 38.808C99.8357 39.096 99.1637 39.24 98.4757 39.24C97.2757 39.24 96.2037 38.96 95.2597 38.4C94.3317 37.824 93.5957 37.048 93.0517 36.072C92.5077 35.08 92.2357 33.952 92.2357 32.688C92.2357 31.424 92.4997 30.304 93.0277 29.328C93.5717 28.336 94.3077 27.56 95.2357 27C96.1797 26.424 97.2357 26.136 98.4037 26.136C98.8837 26.136 99.3477 26.2 99.7957 26.328C100.244 26.44 100.66 26.608 101.044 26.832C101.428 27.04 101.772 27.272 102.076 27.528C102.38 27.784 102.628 28.056 102.82 28.344C103.012 28.632 103.132 28.904 103.18 29.16L102.652 29.352V26.4H105.124V38.232C105.124 39.24 104.972 40.128 104.668 40.896C104.38 41.68 103.956 42.336 103.396 42.864C102.836 43.408 102.156 43.816 101.356 44.088C100.556 44.376 99.6517 44.52 98.6437 44.52ZM98.7397 36.96C99.5237 36.96 100.22 36.776 100.828 36.408C101.436 36.04 101.908 35.536 102.244 34.896C102.58 34.256 102.748 33.52 102.748 32.688C102.748 31.856 102.572 31.12 102.22 30.48C101.884 29.824 101.412 29.312 100.804 28.944C100.212 28.576 99.5237 28.392 98.7397 28.392C97.9717 28.392 97.2837 28.584 96.6757 28.968C96.0837 29.336 95.6117 29.848 95.2597 30.504C94.9237 31.144 94.7557 31.872 94.7557 32.688C94.7557 33.504 94.9237 34.24 95.2597 34.896C95.6117 35.536 96.0837 36.04 96.6757 36.408C97.2837 36.776 97.9717 36.96 98.7397 36.96ZM108.326 39V26.4H110.798V28.992L110.366 29.28C110.526 28.72 110.838 28.208 111.302 27.744C111.766 27.264 112.318 26.88 112.958 26.592C113.598 26.288 114.254 26.136 114.926 26.136C115.886 26.136 116.686 26.328 117.326 26.712C117.966 27.08 118.446 27.648 118.766 28.416C119.086 29.184 119.246 30.152 119.246 31.32V39H116.774V31.488C116.774 30.768 116.678 30.176 116.486 29.712C116.294 29.232 115.998 28.888 115.598 28.68C115.198 28.456 114.702 28.36 114.11 28.392C113.63 28.392 113.19 28.472 112.79 28.632C112.39 28.776 112.038 28.984 111.734 29.256C111.446 29.528 111.214 29.848 111.038 30.216C110.878 30.568 110.798 30.952 110.798 31.368V39H109.574C109.366 39 109.158 39 108.95 39C108.742 39 108.534 39 108.326 39ZM122.743 39V26.4H125.215V39H122.743ZM123.943 23.616C123.415 23.616 123.007 23.48 122.719 23.208C122.431 22.936 122.287 22.552 122.287 22.056C122.287 21.592 122.431 21.216 122.719 20.928C123.023 20.64 123.431 20.496 123.943 20.496C124.471 20.496 124.879 20.632 125.167 20.904C125.455 21.176 125.599 21.56 125.599 22.056C125.599 22.52 125.447 22.896 125.143 23.184C124.855 23.472 124.455 23.616 123.943 23.616ZM130.119 39V24.984C130.119 24.264 130.279 23.624 130.599 23.064C130.919 22.504 131.359 22.064 131.919 21.744C132.479 21.424 133.127 21.264 133.863 21.264C134.375 21.264 134.855 21.36 135.303 21.552C135.751 21.744 136.111 22 136.383 22.32L135.543 24.216C135.335 24.024 135.103 23.872 134.847 23.76C134.607 23.632 134.375 23.568 134.151 23.568C133.815 23.568 133.527 23.624 133.287 23.736C133.063 23.832 132.895 23.992 132.783 24.216C132.671 24.424 132.615 24.68 132.615 24.984V39H131.367C131.159 39 130.951 39 130.743 39C130.535 39 130.327 39 130.119 39ZM128.103 28.896V26.616H135.591V28.896H128.103ZM140.021 44.52L142.565 38.64L142.589 40.608L136.301 26.4H139.181L143.117 35.664C143.197 35.824 143.293 36.072 143.405 36.408C143.517 36.728 143.613 37.048 143.693 37.368L143.069 37.512C143.197 37.176 143.317 36.84 143.429 36.504C143.557 36.168 143.677 35.832 143.789 35.496L147.077 26.4H150.005L144.821 39L142.685 44.52H140.021Z" fill="#333333"/>
<path d="M43.2508 28.1238C43.2508 29.9165 42.6687 31.5725 41.6882 32.9161L46.6338 37.8646C47.1221 38.3528 47.1221 39.1456 46.6338 39.6338C46.1455 40.1221 45.3525 40.1221 44.8642 39.6338L39.9186 34.6853C38.5748 35.6696 36.9185 36.2476 35.1254 36.2476C30.6369 36.2476 27 32.6114 27 28.1238C27 23.6362 30.6369 20 35.1254 20C39.6139 20 43.2508 23.6362 43.2508 28.1238ZM34.1879 31.5608C34.1879 32.0803 34.6058 32.4982 35.1254 32.4982C35.645 32.4982 36.0629 32.0803 36.0629 31.5608V29.0612H38.5631C39.0826 29.0612 39.5006 28.6433 39.5006 28.1238C39.5006 27.6044 39.0826 27.1864 38.5631 27.1864H36.0629V24.6868C36.0629 24.1674 35.645 23.7495 35.1254 23.7495C34.6058 23.7495 34.1879 24.1674 34.1879 24.6868V27.1864H31.6877C31.1682 27.1864 30.7502 27.6044 30.7502 28.1238C30.7502 28.6433 31.1682 29.0612 31.6877 29.0612H34.1879V31.5608Z" fill="#333333"/>
</svg>
