<svg width="100" height="40" viewBox="0 0 150 60" fill="none" xmlns="http://www.w3.org/2000/svg">
<rect x="1" y="1" width="148" height="58" rx="29" fill="white" stroke="black" stroke-width="2"/>
<path d="M49.8095 17.0035C49.4938 17.0035 49.191 17.1289 48.9677 17.3521C48.7445 17.5753 48.619 17.8781 48.619 18.1938C47.7193 17.5177 46.6463 17.1105 45.5245 17.0195C44.4027 16.9285 43.2781 17.1573 42.2811 17.6795C41.2841 18.2016 40.4556 18.9957 39.8917 19.9696C39.3277 20.9435 39.0515 22.0573 39.0951 23.1818C39.1386 24.3063 39.5001 25.3954 40.1376 26.3228C40.7751 27.2501 41.6626 27.9778 42.697 28.4213C43.7313 28.8649 44.8703 29.0061 45.9817 28.8286C47.0931 28.6512 48.1314 28.1623 48.9762 27.4187C49.2146 27.2103 49.3604 26.9158 49.3816 26.6C49.4028 26.2841 49.2977 25.9727 49.0893 25.7344C48.8809 25.4961 48.5864 25.3502 48.2704 25.329C47.9545 25.3078 47.6431 25.413 47.4048 25.6213C46.876 26.088 46.2208 26.3877 45.522 26.4826C44.8231 26.5775 44.1117 26.4634 43.4776 26.1546C42.8435 25.8458 42.315 25.3563 41.9588 24.7476C41.6026 24.1389 41.4346 23.4385 41.4761 22.7345C41.5175 22.0305 41.7664 21.3545 42.1916 20.7918C42.6167 20.2291 43.1989 19.8048 43.8648 19.5725C44.5308 19.3402 45.2506 19.3103 45.9336 19.4865C46.6165 19.6626 47.232 20.0371 47.7024 20.5625H46.2381C45.9224 20.5625 45.6196 20.6879 45.3963 20.9111C45.173 21.1344 45.0476 21.4371 45.0476 21.7528C45.0476 22.0685 45.173 22.3713 45.3963 22.5945C45.6196 22.8177 45.9224 22.9431 46.2381 22.9431H49.8095C50.1253 22.9431 50.4281 22.8177 50.6513 22.5945C50.8746 22.3713 51 22.0685 51 21.7528V18.1819C50.9969 17.8683 50.8701 17.5685 50.6471 17.3479C50.4242 17.1272 50.1232 17.0035 49.8095 17.0035ZM46.2381 31.2872C45.9224 31.2872 45.6196 31.4126 45.3963 31.6358C45.173 31.8591 45.0476 32.1618 45.0476 32.4775V32.9417L43.2619 31.1801C42.9554 30.8716 42.591 30.6269 42.1895 30.4598C41.788 30.2928 41.3575 30.2068 40.9226 30.2068C40.4878 30.2068 40.0572 30.2928 39.6558 30.4598C39.2543 30.6269 38.8898 30.8716 38.5833 31.1801L37.75 32.0133L34.8214 29.0494C34.1993 28.4323 33.3585 28.086 32.4821 28.086C31.6058 28.086 30.765 28.4323 30.1429 29.0494L28.381 30.8111V24.1453C28.381 23.8296 28.5064 23.5269 28.7296 23.3037C28.9529 23.0804 29.2557 22.955 29.5714 22.955H35.5238C35.8395 22.955 36.1423 22.8296 36.3656 22.6064C36.5889 22.3832 36.7143 22.0804 36.7143 21.7647C36.7143 21.449 36.5889 21.1463 36.3656 20.923C36.1423 20.6998 35.8395 20.5744 35.5238 20.5744H29.5714C28.6242 20.5744 27.7158 20.9506 27.046 21.6203C26.3763 22.29 26 23.1983 26 24.1453V38.4291C26 39.3761 26.3763 40.2844 27.046 40.9541C27.7158 41.6238 28.6242 42 29.5714 42H43.8571C44.8043 42 45.7128 41.6238 46.3825 40.9541C47.0523 40.2844 47.4286 39.3761 47.4286 38.4291V32.4775C47.4286 32.1618 47.3031 31.8591 47.0799 31.6358C46.8566 31.4126 46.5538 31.2872 46.2381 31.2872ZM29.5714 39.6194C29.2557 39.6194 28.9529 39.494 28.7296 39.2707C28.5064 39.0475 28.381 38.7448 28.381 38.4291V34.1797L31.8333 30.692C32.0082 30.5254 32.2406 30.4324 32.4821 30.4324C32.7237 30.4324 32.9561 30.5254 33.131 30.692L36.9048 34.4653L42.0714 39.6194H29.5714ZM45.0476 38.4291C45.0377 38.6555 44.9634 38.8743 44.8333 39.0599L39.4643 33.6916L40.2976 32.8584C40.4716 32.6854 40.707 32.5883 40.9524 32.5883C41.1978 32.5883 41.4332 32.6854 41.6071 32.8584L45.0476 36.3103V38.4291Z" fill="#3A3A3A"/>
<path d="M64.0175 39V22.2H71.4575C72.4975 22.2 73.4415 22.44 74.2895 22.92C75.1375 23.384 75.8015 24.016 76.2815 24.816C76.7775 25.616 77.0255 26.528 77.0255 27.552C77.0255 28.56 76.7775 29.48 76.2815 30.312C75.8015 31.128 75.1375 31.776 74.2895 32.256C73.4415 32.736 72.4975 32.976 71.4575 32.976H67.4975V39H64.0175ZM73.5455 39L69.2735 31.416L72.9695 30.816L77.7215 39.024L73.5455 39ZM67.4975 30.048H71.2895C71.7215 30.048 72.0975 29.952 72.4175 29.76C72.7535 29.552 73.0095 29.272 73.1855 28.92C73.3615 28.552 73.4495 28.144 73.4495 27.696C73.4495 27.216 73.3455 26.8 73.1375 26.448C72.9295 26.096 72.6255 25.824 72.2255 25.632C71.8255 25.424 71.3615 25.32 70.8335 25.32H67.4975V30.048ZM85.6334 39.24C84.2574 39.24 83.0574 38.96 82.0334 38.4C81.0094 37.84 80.2094 37.072 79.6334 36.096C79.0574 35.12 78.7694 34 78.7694 32.736C78.7694 31.76 78.9294 30.864 79.2494 30.048C79.5694 29.232 80.0174 28.528 80.5934 27.936C81.1694 27.328 81.8494 26.864 82.6334 26.544C83.4334 26.208 84.2974 26.04 85.2254 26.04C86.0894 26.04 86.8894 26.2 87.6254 26.52C88.3614 26.824 88.9934 27.264 89.5214 27.84C90.0654 28.4 90.4814 29.064 90.7694 29.832C91.0574 30.6 91.1854 31.44 91.1534 32.352L91.1294 33.408H80.9294L80.3774 31.32H88.3214L87.9374 31.752V31.224C87.9054 30.792 87.7614 30.4 87.5054 30.048C87.2654 29.696 86.9534 29.424 86.5694 29.232C86.1854 29.04 85.7534 28.944 85.2734 28.944C84.5694 28.944 83.9694 29.08 83.4734 29.352C82.9934 29.624 82.6254 30.024 82.3694 30.552C82.1134 31.08 81.9854 31.72 81.9854 32.472C81.9854 33.24 82.1454 33.904 82.4654 34.464C82.8014 35.024 83.2654 35.464 83.8574 35.784C84.4654 36.088 85.1774 36.24 85.9934 36.24C86.5534 36.24 87.0654 36.152 87.5294 35.976C87.9934 35.8 88.4894 35.496 89.0174 35.064L90.6494 37.344C90.1854 37.76 89.6734 38.112 89.1134 38.4C88.5534 38.672 87.9774 38.88 87.3854 39.024C86.7934 39.168 86.2094 39.24 85.6334 39.24ZM98.3759 39.24C97.2719 39.24 96.2799 38.96 95.3999 38.4C94.5199 37.824 93.8239 37.048 93.3119 36.072C92.8159 35.08 92.5679 33.936 92.5679 32.64C92.5679 31.376 92.8159 30.248 93.3119 29.256C93.8239 28.264 94.5119 27.48 95.3759 26.904C96.2559 26.328 97.2559 26.04 98.3759 26.04C98.9679 26.04 99.5359 26.136 100.08 26.328C100.64 26.504 101.136 26.752 101.568 27.072C102.016 27.392 102.376 27.752 102.648 28.152C102.92 28.536 103.072 28.944 103.104 29.376L102.24 29.52V21.24H105.648V39H102.432L102.288 36.072L102.96 36.144C102.928 36.544 102.784 36.928 102.528 37.296C102.272 37.664 101.928 38 101.496 38.304C101.08 38.592 100.6 38.824 100.056 39C99.5279 39.16 98.9679 39.24 98.3759 39.24ZM99.1439 36.408C99.7839 36.408 100.344 36.248 100.824 35.928C101.304 35.608 101.68 35.168 101.952 34.608C102.224 34.048 102.36 33.392 102.36 32.64C102.36 31.904 102.224 31.256 101.952 30.696C101.68 30.12 101.304 29.68 100.824 29.376C100.344 29.056 99.7839 28.896 99.1439 28.896C98.5039 28.896 97.9439 29.056 97.4639 29.376C96.9999 29.68 96.6319 30.12 96.3599 30.696C96.1039 31.256 95.9759 31.904 95.9759 32.64C95.9759 33.392 96.1039 34.048 96.3599 34.608C96.6319 35.168 96.9999 35.608 97.4639 35.928C97.9439 36.248 98.5039 36.408 99.1439 36.408ZM114.61 39.24C113.314 39.24 112.154 38.96 111.13 38.4C110.122 37.824 109.322 37.04 108.73 36.048C108.154 35.056 107.866 33.92 107.866 32.64C107.866 31.36 108.154 30.232 108.73 29.256C109.322 28.264 110.122 27.48 111.13 26.904C112.154 26.328 113.314 26.04 114.61 26.04C115.89 26.04 117.034 26.328 118.042 26.904C119.066 27.48 119.866 28.264 120.442 29.256C121.018 30.232 121.306 31.36 121.306 32.64C121.306 33.92 121.018 35.056 120.442 36.048C119.866 37.04 119.066 37.824 118.042 38.4C117.034 38.96 115.89 39.24 114.61 39.24ZM114.61 36.264C115.234 36.264 115.794 36.112 116.29 35.808C116.786 35.488 117.17 35.056 117.442 34.512C117.73 33.952 117.874 33.328 117.874 32.64C117.874 31.936 117.73 31.312 117.442 30.768C117.17 30.208 116.786 29.776 116.29 29.472C115.794 29.152 115.234 28.992 114.61 28.992C113.97 28.992 113.402 29.152 112.906 29.472C112.41 29.792 112.018 30.224 111.73 30.768C111.442 31.312 111.306 31.936 111.322 32.64C111.306 33.328 111.442 33.952 111.73 34.512C112.018 35.056 112.41 35.488 112.906 35.808C113.402 36.112 113.97 36.264 114.61 36.264Z" fill="#3A3A3A"/>
</svg>
