<svg width="100" height="40" viewBox="0 0 180 60" fill="none" xmlns="http://www.w3.org/2000/svg">
<rect x="1" y="1" width="178" height="58" rx="29" fill="white" stroke="black" stroke-width="2"/>
<path d="M35.6033 18.817C35.9701 18.0737 37.0299 18.0737 37.3967 18.817L39.941 23.9722C40.0866 24.2673 40.3682 24.4719 40.6939 24.5192L46.383 25.3459C47.2033 25.4651 47.5308 26.4731 46.9373 27.0516L42.8206 31.0644C42.5849 31.2941 42.4773 31.6251 42.533 31.9495L43.5048 37.6157C43.6449 38.4326 42.7875 39.0555 42.0538 38.6698L36.9653 35.9946C36.674 35.8415 36.326 35.8415 36.0347 35.9946L30.9462 38.6698C30.2125 39.0555 29.3551 38.4326 29.4952 37.6157L30.467 31.9495C30.5227 31.6251 30.4151 31.2941 30.1794 31.0644L26.0627 27.0516C25.4692 26.4731 25.7967 25.4651 26.617 25.3459L32.3061 24.5192C32.6318 24.4719 32.9134 24.2673 33.059 23.9722L35.6033 18.817Z" fill="#333333"/>
<path d="M75.7233 39.24C74.8113 39.24 73.9633 39.12 73.1793 38.88C72.4113 38.64 71.7073 38.28 71.0673 37.8C70.4433 37.304 69.8833 36.696 69.3873 35.976L71.1633 33.936C71.9473 35.056 72.6993 35.832 73.4193 36.264C74.1393 36.696 74.9953 36.912 75.9873 36.912C76.5953 36.912 77.1473 36.816 77.6433 36.624C78.1393 36.432 78.5313 36.168 78.8193 35.832C79.1073 35.496 79.2513 35.112 79.2513 34.68C79.2513 34.392 79.2033 34.12 79.1073 33.864C79.0113 33.608 78.8593 33.376 78.6513 33.168C78.4593 32.96 78.2033 32.768 77.8833 32.592C77.5793 32.416 77.2193 32.264 76.8033 32.136C76.3873 31.992 75.9073 31.872 75.3633 31.776C74.4993 31.6 73.7473 31.368 73.1073 31.08C72.4673 30.792 71.9313 30.432 71.4993 30C71.0673 29.568 70.7473 29.08 70.5393 28.536C70.3313 27.976 70.2273 27.352 70.2273 26.664C70.2273 25.992 70.3713 25.368 70.6593 24.792C70.9633 24.216 71.3713 23.72 71.8833 23.304C72.4113 22.872 73.0273 22.544 73.7313 22.32C74.4353 22.08 75.1953 21.96 76.0113 21.96C76.8753 21.96 77.6673 22.072 78.3873 22.296C79.1073 22.52 79.7473 22.856 80.3073 23.304C80.8673 23.736 81.3313 24.272 81.6993 24.912L79.8753 26.712C79.5553 26.184 79.1953 25.744 78.7953 25.392C78.3953 25.024 77.9553 24.752 77.4753 24.576C76.9953 24.384 76.4833 24.288 75.9393 24.288C75.3153 24.288 74.7713 24.384 74.3073 24.576C73.8433 24.768 73.4753 25.04 73.2033 25.392C72.9473 25.728 72.8193 26.128 72.8193 26.592C72.8193 26.928 72.8833 27.24 73.0113 27.528C73.1393 27.8 73.3313 28.048 73.5873 28.272C73.8593 28.48 74.2193 28.672 74.6673 28.848C75.1153 29.008 75.6513 29.152 76.2753 29.28C77.1553 29.472 77.9393 29.72 78.6273 30.024C79.3153 30.312 79.8993 30.656 80.3793 31.056C80.8593 31.456 81.2193 31.904 81.4593 32.4C81.7153 32.896 81.8433 33.432 81.8433 34.008C81.8433 35.08 81.5953 36.008 81.0993 36.792C80.6033 37.576 79.8993 38.184 78.9873 38.616C78.0753 39.032 76.9873 39.24 75.7233 39.24ZM90.5079 39.24C89.2119 39.24 88.0599 38.968 87.0519 38.424C86.0599 37.864 85.2759 37.104 84.6999 36.144C84.1399 35.184 83.8599 34.08 83.8599 32.832C83.8599 31.84 84.0199 30.936 84.3399 30.12C84.6599 29.304 85.0999 28.6 85.6599 28.008C86.2359 27.4 86.9159 26.936 87.6999 26.616C88.4999 26.28 89.3639 26.112 90.2919 26.112C91.1079 26.112 91.8679 26.272 92.5719 26.592C93.2759 26.896 93.8839 27.32 94.3959 27.864C94.9239 28.408 95.3239 29.056 95.5959 29.808C95.8839 30.544 96.0199 31.352 96.0039 32.232L95.9799 33.288H85.6839L85.1319 31.32H93.8439L93.4839 31.728V31.152C93.4359 30.624 93.2599 30.152 92.9559 29.736C92.6519 29.32 92.2679 28.992 91.8039 28.752C91.3399 28.512 90.8359 28.392 90.2919 28.392C89.4279 28.392 88.6999 28.56 88.1079 28.896C87.5159 29.216 87.0679 29.696 86.7639 30.336C86.4599 30.96 86.3079 31.736 86.3079 32.664C86.3079 33.544 86.4919 34.312 86.8599 34.968C87.2279 35.608 87.7479 36.104 88.4199 36.456C89.0919 36.808 89.8679 36.984 90.7479 36.984C91.3719 36.984 91.9479 36.88 92.4759 36.672C93.0199 36.464 93.6039 36.088 94.2279 35.544L95.4759 37.296C95.0919 37.68 94.6199 38.016 94.0599 38.304C93.5159 38.592 92.9319 38.824 92.3079 39C91.6999 39.16 91.0999 39.24 90.5079 39.24ZM98.4744 39V21.24H100.946V39H98.4744ZM109.831 39.24C108.535 39.24 107.383 38.968 106.375 38.424C105.383 37.864 104.599 37.104 104.023 36.144C103.463 35.184 103.183 34.08 103.183 32.832C103.183 31.84 103.343 30.936 103.663 30.12C103.983 29.304 104.423 28.6 104.983 28.008C105.559 27.4 106.239 26.936 107.023 26.616C107.823 26.28 108.687 26.112 109.615 26.112C110.431 26.112 111.191 26.272 111.895 26.592C112.599 26.896 113.207 27.32 113.719 27.864C114.247 28.408 114.647 29.056 114.919 29.808C115.207 30.544 115.343 31.352 115.327 32.232L115.303 33.288H105.007L104.455 31.32H113.167L112.807 31.728V31.152C112.759 30.624 112.583 30.152 112.279 29.736C111.975 29.32 111.591 28.992 111.127 28.752C110.663 28.512 110.159 28.392 109.615 28.392C108.751 28.392 108.023 28.56 107.431 28.896C106.839 29.216 106.391 29.696 106.087 30.336C105.783 30.96 105.631 31.736 105.631 32.664C105.631 33.544 105.815 34.312 106.183 34.968C106.551 35.608 107.071 36.104 107.743 36.456C108.415 36.808 109.191 36.984 110.071 36.984C110.695 36.984 111.271 36.88 111.799 36.672C112.343 36.464 112.927 36.088 113.551 35.544L114.799 37.296C114.415 37.68 113.943 38.016 113.383 38.304C112.839 38.592 112.255 38.824 111.631 39C111.023 39.16 110.423 39.24 109.831 39.24ZM123.102 39.24C121.934 39.24 120.886 38.952 119.958 38.376C119.046 37.8 118.318 37.016 117.774 36.024C117.246 35.032 116.982 33.92 116.982 32.688C116.982 31.456 117.246 30.344 117.774 29.352C118.318 28.36 119.046 27.576 119.958 27C120.886 26.424 121.934 26.136 123.102 26.136C124.222 26.136 125.238 26.368 126.15 26.832C127.078 27.28 127.782 27.896 128.262 28.68L126.894 30.36C126.638 29.992 126.31 29.656 125.91 29.352C125.51 29.048 125.086 28.808 124.638 28.632C124.19 28.456 123.758 28.368 123.342 28.368C122.574 28.368 121.886 28.56 121.278 28.944C120.686 29.312 120.214 29.824 119.862 30.48C119.51 31.136 119.334 31.872 119.334 32.688C119.334 33.504 119.518 34.24 119.886 34.896C120.254 35.536 120.742 36.048 121.35 36.432C121.958 36.816 122.63 37.008 123.366 37.008C123.798 37.008 124.214 36.936 124.614 36.792C125.03 36.648 125.43 36.432 125.814 36.144C126.198 35.856 126.558 35.504 126.894 35.088L128.262 36.768C127.75 37.488 127.014 38.08 126.054 38.544C125.11 39.008 124.126 39.24 123.102 39.24ZM131.89 39V23.184H134.362V39H131.89ZM129.274 28.8V26.4H137.29V28.8H129.274Z" fill="#333333"/>
</svg>
