<svg width="1455" height="798" viewBox="0 0 1455 798" fill="none" xmlns="http://www.w3.org/2000/svg">
<g clip-path="url(#clip0_341_4397)">
<rect width="1455" height="798" fill="white"/>
<path d="M-318 -2L337 798" stroke="#FBB3D1" stroke-linecap="round"/>
<path d="M-278 -2L377 798" stroke="#FBB3D1" stroke-linecap="round"/>
<path d="M-238 -2L417 798" stroke="#FBB3D1" stroke-linecap="round"/>
<path d="M-198 -2L457 798" stroke="#FBB3D1" stroke-linecap="round"/>
<path d="M-158 -2L497 798" stroke="#FBB3D1" stroke-linecap="round"/>
<path d="M-118 -2L537 798" stroke="#FBB3D1" stroke-linecap="round"/>
<path d="M-78 -2L577 798" stroke="#FBB3D1" stroke-linecap="round"/>
<path d="M-38 -2L617 798" stroke="#FBB3D1" stroke-linecap="round"/>
<path d="M2 -2L657 798" stroke="#FBB3D1" stroke-linecap="round"/>
<path d="M42 -2L697 798" stroke="#FBB3D1" stroke-linecap="round"/>
<path d="M82 -2L737 798" stroke="#FBB3D1" stroke-linecap="round"/>
<path d="M122 -2L777 798" stroke="#FBB3D1" stroke-linecap="round"/>
<path d="M162 -2L817 798" stroke="#FBB3D1" stroke-linecap="round"/>
<path d="M202 -2L857 798" stroke="#FBB3D1" stroke-linecap="round"/>
<path d="M242 -2L897 798" stroke="#FBB3D1" stroke-linecap="round"/>
<path d="M282 -2L937 798" stroke="#FBB3D1" stroke-linecap="round"/>
<path d="M322 -2L977 798" stroke="#FBB3D1" stroke-linecap="round"/>
<path d="M362 -2L1017 798" stroke="#FBB3D1" stroke-linecap="round"/>
<path d="M402 -2L1057 798" stroke="#FBB3D1" stroke-linecap="round"/>
<path d="M442 -2L1097 798" stroke="#FBB3D1" stroke-linecap="round"/>
<path d="M482 -2L1137 798" stroke="#FBB3D1" stroke-linecap="round"/>
<path d="M522 -2L1177 798" stroke="#FBB3D1" stroke-linecap="round"/>
<path d="M562 -2L1217 798" stroke="#FBB3D1" stroke-linecap="round"/>
<path d="M602 -2L1257 798" stroke="#FBB3D1" stroke-linecap="round"/>
<path d="M642 -2L1297 798" stroke="#FBB3D1" stroke-linecap="round"/>
<path d="M682 -2L1337 798" stroke="#FBB3D1" stroke-linecap="round"/>
<path d="M722 -2L1377 798" stroke="#FBB3D1" stroke-linecap="round"/>
<path d="M762 -2L1417 798" stroke="#FBB3D1" stroke-linecap="round"/>
<path d="M802 -2L1457 798" stroke="#FBB3D1" stroke-linecap="round"/>
<path d="M842 -2L1497 798" stroke="#FBB3D1" stroke-linecap="round"/>
<path d="M-638 -2L17 798" stroke="#FBB3D1" stroke-linecap="round"/>
<path d="M882 -2L1537 798" stroke="#FBB3D1" stroke-linecap="round"/>
<path d="M-598 -2L57 798" stroke="#FBB3D1" stroke-linecap="round"/>
<path d="M922 -2L1577 798" stroke="#FBB3D1" stroke-linecap="round"/>
<path d="M-558 -2L97 798" stroke="#FBB3D1" stroke-linecap="round"/>
<path d="M962 -2L1617 798" stroke="#FBB3D1" stroke-linecap="round"/>
<path d="M-518 -2L137 798" stroke="#FBB3D1" stroke-linecap="round"/>
<path d="M1002 -2L1657 798" stroke="#FBB3D1" stroke-linecap="round"/>
<path d="M-478 -2L177 798" stroke="#FBB3D1" stroke-linecap="round"/>
<path d="M1042 -2L1697 798" stroke="#FBB3D1" stroke-linecap="round"/>
<path d="M-438 -2L217 798" stroke="#FBB3D1" stroke-linecap="round"/>
<path d="M1082 -2L1737 798" stroke="#FBB3D1" stroke-linecap="round"/>
<path d="M-398 -2L257 798" stroke="#FBB3D1" stroke-linecap="round"/>
<path d="M1122 -2L1777 798" stroke="#FBB3D1" stroke-linecap="round"/>
<path d="M-358 -2L297 798" stroke="#FBB3D1" stroke-linecap="round"/>
<path d="M1162 -2L1817 798" stroke="#FBB3D1" stroke-linecap="round"/>
<path d="M-298 -2L357 798" stroke="#FBB3D1" stroke-linecap="round"/>
<path d="M-258 -2L397 798" stroke="#FBB3D1" stroke-linecap="round"/>
<path d="M-218 -2L437 798" stroke="#FBB3D1" stroke-linecap="round"/>
<path d="M-178 -2L477 798" stroke="#FBB3D1" stroke-linecap="round"/>
<path d="M-138 -2L517 798" stroke="#FBB3D1" stroke-linecap="round"/>
<path d="M-98 -2L557 798" stroke="#FBB3D1" stroke-linecap="round"/>
<path d="M-58 -2L597 798" stroke="#FBB3D1" stroke-linecap="round"/>
<path d="M-18 -2L637 798" stroke="#FBB3D1" stroke-linecap="round"/>
<path d="M22 -2L677 798" stroke="#FBB3D1" stroke-linecap="round"/>
<path d="M62 -2L717 798" stroke="#FBB3D1" stroke-linecap="round"/>
<path d="M102 -2L757 798" stroke="#FBB3D1" stroke-linecap="round"/>
<path d="M142 -2L797 798" stroke="#FBB3D1" stroke-linecap="round"/>
<path d="M182 -2L837 798" stroke="#FBB3D1" stroke-linecap="round"/>
<path d="M222 -2L877 798" stroke="#FBB3D1" stroke-linecap="round"/>
<path d="M262 -2L917 798" stroke="#FBB3D1" stroke-linecap="round"/>
<path d="M302 -2L957 798" stroke="#FBB3D1" stroke-linecap="round"/>
<path d="M342 -2L997 798" stroke="#FBB3D1" stroke-linecap="round"/>
<path d="M382 -2L1037 798" stroke="#FBB3D1" stroke-linecap="round"/>
<path d="M422 -2L1077 798" stroke="#FBB3D1" stroke-linecap="round"/>
<path d="M462 -2L1117 798" stroke="#FBB3D1" stroke-linecap="round"/>
<path d="M502 -2L1157 798" stroke="#FBB3D1" stroke-linecap="round"/>
<path d="M542 -2L1197 798" stroke="#FBB3D1" stroke-linecap="round"/>
<path d="M582 -2L1237 798" stroke="#FBB3D1" stroke-linecap="round"/>
<path d="M622 -2L1277 798" stroke="#FBB3D1" stroke-linecap="round"/>
<path d="M662 -2L1317 798" stroke="#FBB3D1" stroke-linecap="round"/>
<path d="M702 -2L1357 798" stroke="#FBB3D1" stroke-linecap="round"/>
<path d="M742 -2L1397 798" stroke="#FBB3D1" stroke-linecap="round"/>
<path d="M782 -2L1437 798" stroke="#FBB3D1" stroke-linecap="round"/>
<path d="M822 -2L1477 798" stroke="#FBB3D1" stroke-linecap="round"/>
<path d="M862 -2L1517 798" stroke="#FBB3D1" stroke-linecap="round"/>
<path d="M-618 -2L37 798" stroke="#FBB3D1" stroke-linecap="round"/>
<path d="M902 -2L1557 798" stroke="#FBB3D1" stroke-linecap="round"/>
<path d="M-578 -2L77 798" stroke="#FBB3D1" stroke-linecap="round"/>
<path d="M942 -2L1597 798" stroke="#FBB3D1" stroke-linecap="round"/>
<path d="M-538 -2L117 798" stroke="#FBB3D1" stroke-linecap="round"/>
<path d="M982 -2L1637 798" stroke="#FBB3D1" stroke-linecap="round"/>
<path d="M-498 -2L157 798" stroke="#FBB3D1" stroke-linecap="round"/>
<path d="M1022 -2L1677 798" stroke="#FBB3D1" stroke-linecap="round"/>
<path d="M-458 -2L197 798" stroke="#FBB3D1" stroke-linecap="round"/>
<path d="M1062 -2L1717 798" stroke="#FBB3D1" stroke-linecap="round"/>
<path d="M-418 -2L237 798" stroke="#FBB3D1" stroke-linecap="round"/>
<path d="M1102 -2L1757 798" stroke="#FBB3D1" stroke-linecap="round"/>
<path d="M-378 -2L277 798" stroke="#FBB3D1" stroke-linecap="round"/>
<path d="M1142 -2L1797 798" stroke="#FBB3D1" stroke-linecap="round"/>
<path d="M-338 -2L317 798" stroke="#FBB3D1" stroke-linecap="round"/>
<path d="M1182 -2L1837 798" stroke="#FBB3D1" stroke-linecap="round"/>
<path d="M1201 -2L1856 798" stroke="#FBB3D1" stroke-linecap="round"/>
<path d="M1241 -2L1896 798" stroke="#FBB3D1" stroke-linecap="round"/>
<path d="M1281 -2L1936 798" stroke="#FBB3D1" stroke-linecap="round"/>
<path d="M1321 -2L1976 798" stroke="#FBB3D1" stroke-linecap="round"/>
<path d="M1361 -2L2016 798" stroke="#FBB3D1" stroke-linecap="round"/>
<path d="M1401 -2L2056 798" stroke="#FBB3D1" stroke-linecap="round"/>
<path d="M1441 -2L2096 798" stroke="#FBB3D1" stroke-linecap="round"/>
<path d="M1221 -2L1876 798" stroke="#FBB3D1" stroke-linecap="round"/>
<path d="M1261 -2L1916 798" stroke="#FBB3D1" stroke-linecap="round"/>
<path d="M1301 -2L1956 798" stroke="#FBB3D1" stroke-linecap="round"/>
<path d="M1341 -2L1996 798" stroke="#FBB3D1" stroke-linecap="round"/>
<path d="M1381 -2L2036 798" stroke="#FBB3D1" stroke-linecap="round"/>
<path d="M1421 -2L2076 798" stroke="#FBB3D1" stroke-linecap="round"/>
</g>
<defs>
<clipPath id="clip0_341_4397">
<rect width="1455" height="798" fill="white"/>
</clipPath>
</defs>
</svg>
