<svg width="250" height="120" viewBox="0 0 416 270" fill="none" xmlns="http://www.w3.org/2000/svg">
<g filter="url(#filter0_bd_477_4361)">
<rect x="40" y="5" width="326" height="260" rx="40" fill="white" fill-opacity="0.8" shape-rendering="crispEdges"/>
<rect x="42.5" y="7.5" width="321" height="255" rx="37.5" stroke="url(#paint0_linear_477_4361)" stroke-opacity="0.5" stroke-width="5" shape-rendering="crispEdges"/>
</g>
<circle cx="208" cy="105" r="59" fill="#F00264" stroke="#F00264" stroke-width="2"/>
<path d="M189 102.143L201 117L225 91" stroke="white" stroke-width="10" stroke-linecap="round" stroke-linejoin="round"/>
<path d="M62.1918 221V200.636H74.402V202.824H64.6577V209.705H73.4873V211.892H64.6577V221H62.1918ZM77.9992 221V205.727H80.3458V221H77.9992ZM79.1924 203.182C78.735 203.182 78.3406 203.026 78.0092 202.714C77.6843 202.403 77.5219 202.028 77.5219 201.591C77.5219 201.153 77.6843 200.779 78.0092 200.467C78.3406 200.156 78.735 200 79.1924 200C79.6498 200 80.0409 200.156 80.3657 200.467C80.6971 200.779 80.8629 201.153 80.8629 201.591C80.8629 202.028 80.6971 202.403 80.3657 202.714C80.0409 203.026 79.6498 203.182 79.1924 203.182ZM86.6823 200.636V221H84.3357V200.636H86.6823ZM97.0757 221.318C95.6041 221.318 94.3347 220.993 93.2674 220.344C92.2068 219.688 91.3882 218.773 90.8115 217.599C90.2414 216.42 89.9564 215.047 89.9564 213.483C89.9564 211.919 90.2414 210.54 90.8115 209.347C91.3882 208.147 92.1903 207.212 93.2177 206.543C94.2518 205.866 95.4583 205.528 96.8371 205.528C97.6325 205.528 98.418 205.661 99.1936 205.926C99.9692 206.191 100.675 206.622 101.311 207.219C101.948 207.809 102.455 208.591 102.833 209.565C103.211 210.54 103.4 211.74 103.4 213.165V214.159H91.6268V212.131H101.013C101.013 211.269 100.841 210.5 100.496 209.824C100.158 209.148 99.6742 208.614 99.0444 208.223C98.4213 207.832 97.6855 207.636 96.8371 207.636C95.9024 207.636 95.0937 207.868 94.4109 208.332C93.7348 208.79 93.2144 209.386 92.8498 210.122C92.4853 210.858 92.303 211.647 92.303 212.489V213.841C92.303 214.994 92.5018 215.972 92.8996 216.774C93.3039 217.57 93.864 218.176 94.5799 218.594C95.2959 219.005 96.1278 219.21 97.0757 219.21C97.6922 219.21 98.249 219.124 98.7461 218.952C99.2499 218.773 99.6841 218.508 100.049 218.156C100.413 217.798 100.695 217.354 100.894 216.824L103.161 217.46C102.922 218.229 102.521 218.905 101.958 219.489C101.394 220.065 100.698 220.516 99.8697 220.841C99.0411 221.159 98.1098 221.318 97.0757 221.318ZM125.046 209.148L122.938 209.744C122.806 209.393 122.61 209.052 122.352 208.72C122.1 208.382 121.755 208.104 121.318 207.885C120.88 207.666 120.32 207.557 119.637 207.557C118.703 207.557 117.924 207.772 117.301 208.203C116.684 208.627 116.376 209.168 116.376 209.824C116.376 210.407 116.588 210.868 117.012 211.206C117.436 211.544 118.099 211.826 119.001 212.051L121.268 212.608C122.633 212.939 123.651 213.446 124.32 214.129C124.99 214.805 125.325 215.677 125.325 216.744C125.325 217.619 125.073 218.402 124.569 219.091C124.072 219.78 123.376 220.324 122.481 220.722C121.586 221.119 120.545 221.318 119.359 221.318C117.801 221.318 116.512 220.98 115.491 220.304C114.47 219.628 113.824 218.64 113.552 217.341L115.779 216.784C115.991 217.606 116.392 218.223 116.982 218.634C117.579 219.045 118.358 219.25 119.319 219.25C120.413 219.25 121.281 219.018 121.924 218.554C122.574 218.083 122.899 217.52 122.899 216.864C122.899 216.333 122.713 215.889 122.342 215.531C121.971 215.167 121.4 214.895 120.632 214.716L118.086 214.119C116.687 213.788 115.66 213.274 115.004 212.578C114.354 211.875 114.029 210.997 114.029 209.943C114.029 209.081 114.271 208.319 114.755 207.656C115.246 206.993 115.912 206.473 116.754 206.095C117.602 205.717 118.563 205.528 119.637 205.528C121.149 205.528 122.335 205.86 123.197 206.523C124.065 207.186 124.682 208.061 125.046 209.148ZM138.174 214.756V205.727H140.521V221H138.174V218.415H138.015C137.657 219.19 137.1 219.85 136.345 220.393C135.589 220.93 134.634 221.199 133.481 221.199C132.526 221.199 131.678 220.99 130.935 220.572C130.193 220.148 129.61 219.512 129.185 218.663C128.761 217.808 128.549 216.731 128.549 215.432V205.727H130.896V215.273C130.896 216.386 131.207 217.275 131.83 217.938C132.46 218.6 133.262 218.932 134.237 218.932C134.82 218.932 135.413 218.783 136.016 218.484C136.626 218.186 137.137 217.729 137.548 217.112C137.965 216.496 138.174 215.71 138.174 214.756ZM150.715 221.318C149.283 221.318 148.05 220.98 147.016 220.304C145.982 219.628 145.187 218.696 144.63 217.51C144.073 216.323 143.795 214.968 143.795 213.443C143.795 211.892 144.08 210.523 144.65 209.337C145.226 208.143 146.029 207.212 147.056 206.543C148.09 205.866 149.297 205.528 150.675 205.528C151.749 205.528 152.717 205.727 153.579 206.125C154.441 206.523 155.146 207.08 155.697 207.795C156.247 208.511 156.588 209.347 156.721 210.301H154.374C154.195 209.605 153.798 208.989 153.181 208.452C152.571 207.908 151.749 207.636 150.715 207.636C149.8 207.636 148.998 207.875 148.309 208.352C147.626 208.823 147.092 209.489 146.708 210.351C146.33 211.206 146.141 212.21 146.141 213.364C146.141 214.544 146.327 215.571 146.698 216.446C147.076 217.321 147.606 218 148.289 218.484C148.978 218.968 149.787 219.21 150.715 219.21C151.325 219.21 151.878 219.104 152.376 218.892C152.873 218.68 153.294 218.375 153.638 217.977C153.983 217.58 154.228 217.102 154.374 216.545H156.721C156.588 217.447 156.26 218.259 155.736 218.982C155.219 219.697 154.533 220.268 153.678 220.692C152.83 221.109 151.842 221.318 150.715 221.318ZM166.048 221.318C164.616 221.318 163.383 220.98 162.349 220.304C161.315 219.628 160.519 218.696 159.963 217.51C159.406 216.323 159.127 214.968 159.127 213.443C159.127 211.892 159.412 210.523 159.982 209.337C160.559 208.143 161.361 207.212 162.389 206.543C163.423 205.866 164.629 205.528 166.008 205.528C167.082 205.528 168.05 205.727 168.911 206.125C169.773 206.523 170.479 207.08 171.029 207.795C171.579 208.511 171.921 209.347 172.053 210.301H169.707C169.528 209.605 169.13 208.989 168.514 208.452C167.904 207.908 167.082 207.636 166.048 207.636C165.133 207.636 164.331 207.875 163.642 208.352C162.959 208.823 162.425 209.489 162.041 210.351C161.663 211.206 161.474 212.21 161.474 213.364C161.474 214.544 161.66 215.571 162.031 216.446C162.409 217.321 162.939 218 163.622 218.484C164.311 218.968 165.12 219.21 166.048 219.21C166.658 219.21 167.211 219.104 167.708 218.892C168.205 218.68 168.626 218.375 168.971 217.977C169.316 217.58 169.561 217.102 169.707 216.545H172.053C171.921 217.447 171.593 218.259 171.069 218.982C170.552 219.697 169.866 220.268 169.011 220.692C168.162 221.109 167.175 221.318 166.048 221.318ZM181.579 221.318C180.108 221.318 178.838 220.993 177.771 220.344C176.71 219.688 175.892 218.773 175.315 217.599C174.745 216.42 174.46 215.047 174.46 213.483C174.46 211.919 174.745 210.54 175.315 209.347C175.892 208.147 176.694 207.212 177.721 206.543C178.755 205.866 179.962 205.528 181.341 205.528C182.136 205.528 182.922 205.661 183.697 205.926C184.473 206.191 185.179 206.622 185.815 207.219C186.451 207.809 186.959 208.591 187.336 209.565C187.714 210.54 187.903 211.74 187.903 213.165V214.159H176.13V212.131H185.517C185.517 211.269 185.344 210.5 185 209.824C184.662 209.148 184.178 208.614 183.548 208.223C182.925 207.832 182.189 207.636 181.341 207.636C180.406 207.636 179.597 207.868 178.914 208.332C178.238 208.79 177.718 209.386 177.353 210.122C176.989 210.858 176.807 211.647 176.807 212.489V213.841C176.807 214.994 177.005 215.972 177.403 216.774C177.807 217.57 178.368 218.176 179.084 218.594C179.799 219.005 180.631 219.21 181.579 219.21C182.196 219.21 182.753 219.124 183.25 218.952C183.753 218.773 184.188 218.508 184.552 218.156C184.917 217.798 185.199 217.354 185.397 216.824L187.664 217.46C187.426 218.229 187.025 218.905 186.461 219.489C185.898 220.065 185.202 220.516 184.373 220.841C183.545 221.159 182.613 221.318 181.579 221.318ZM201.983 209.148L199.875 209.744C199.742 209.393 199.547 209.052 199.288 208.72C199.036 208.382 198.692 208.104 198.254 207.885C197.817 207.666 197.257 207.557 196.574 207.557C195.639 207.557 194.86 207.772 194.237 208.203C193.621 208.627 193.312 209.168 193.312 209.824C193.312 210.407 193.525 210.868 193.949 211.206C194.373 211.544 195.036 211.826 195.937 212.051L198.204 212.608C199.57 212.939 200.588 213.446 201.257 214.129C201.927 214.805 202.261 215.677 202.261 216.744C202.261 217.619 202.009 218.402 201.506 219.091C201.008 219.78 200.312 220.324 199.418 220.722C198.523 221.119 197.482 221.318 196.295 221.318C194.738 221.318 193.448 220.98 192.427 220.304C191.407 219.628 190.76 218.64 190.489 217.341L192.716 216.784C192.928 217.606 193.329 218.223 193.919 218.634C194.516 219.045 195.294 219.25 196.256 219.25C197.349 219.25 198.218 219.018 198.861 218.554C199.51 218.083 199.835 217.52 199.835 216.864C199.835 216.333 199.65 215.889 199.278 215.531C198.907 215.167 198.337 214.895 197.568 214.716L195.023 214.119C193.624 213.788 192.597 213.274 191.94 212.578C191.291 211.875 190.966 210.997 190.966 209.943C190.966 209.081 191.208 208.319 191.692 207.656C192.182 206.993 192.848 206.473 193.69 206.095C194.539 205.717 195.5 205.528 196.574 205.528C198.085 205.528 199.272 205.86 200.133 206.523C201.002 207.186 201.618 208.061 201.983 209.148ZM216.304 209.148L214.196 209.744C214.063 209.393 213.868 209.052 213.609 208.72C213.357 208.382 213.013 208.104 212.575 207.885C212.138 207.666 211.577 207.557 210.895 207.557C209.96 207.557 209.181 207.772 208.558 208.203C207.942 208.627 207.633 209.168 207.633 209.824C207.633 210.407 207.845 210.868 208.27 211.206C208.694 211.544 209.357 211.826 210.258 212.051L212.525 212.608C213.891 212.939 214.908 213.446 215.578 214.129C216.247 214.805 216.582 215.677 216.582 216.744C216.582 217.619 216.33 218.402 215.827 219.091C215.329 219.78 214.633 220.324 213.738 220.722C212.844 221.119 211.803 221.318 210.616 221.318C209.059 221.318 207.769 220.98 206.748 220.304C205.728 219.628 205.081 218.64 204.809 217.341L207.037 216.784C207.249 217.606 207.65 218.223 208.24 218.634C208.836 219.045 209.615 219.25 210.577 219.25C211.67 219.25 212.539 219.018 213.182 218.554C213.831 218.083 214.156 217.52 214.156 216.864C214.156 216.333 213.97 215.889 213.599 215.531C213.228 215.167 212.658 214.895 211.889 214.716L209.344 214.119C207.945 213.788 206.917 213.274 206.261 212.578C205.612 211.875 205.287 210.997 205.287 209.943C205.287 209.081 205.529 208.319 206.013 207.656C206.503 206.993 207.169 206.473 208.011 206.095C208.86 205.717 209.821 205.528 210.895 205.528C212.406 205.528 213.593 205.86 214.454 206.523C215.323 207.186 215.939 208.061 216.304 209.148ZM226.608 205.727V207.716H218.375V205.727H226.608ZM220.841 221V203.619C220.841 202.744 221.046 202.015 221.457 201.432C221.868 200.848 222.402 200.411 223.058 200.119C223.714 199.828 224.407 199.682 225.136 199.682C225.713 199.682 226.183 199.728 226.548 199.821C226.913 199.914 227.184 200 227.363 200.08L226.687 202.108C226.568 202.068 226.402 202.018 226.19 201.959C225.985 201.899 225.713 201.869 225.375 201.869C224.599 201.869 224.039 202.065 223.694 202.456C223.356 202.847 223.187 203.42 223.187 204.176V221H220.841ZM239.213 214.756V205.727H241.56V221H239.213V218.415H239.054C238.696 219.19 238.14 219.85 237.384 220.393C236.628 220.93 235.674 221.199 234.52 221.199C233.566 221.199 232.717 220.99 231.975 220.572C231.232 220.148 230.649 219.512 230.225 218.663C229.8 217.808 229.588 216.731 229.588 215.432V205.727H231.935V215.273C231.935 216.386 232.247 217.275 232.87 217.938C233.499 218.6 234.301 218.932 235.276 218.932C235.859 218.932 236.452 218.783 237.056 218.484C237.666 218.186 238.176 217.729 238.587 217.112C239.005 216.496 239.213 215.71 239.213 214.756ZM247.896 200.636V221H245.55V200.636H247.896ZM254.233 200.636V221H251.886V200.636H254.233ZM259.734 226.727C259.337 226.727 258.982 226.694 258.67 226.628C258.359 226.568 258.143 226.509 258.024 226.449L258.621 224.381C259.191 224.527 259.695 224.58 260.132 224.54C260.57 224.5 260.957 224.304 261.295 223.953C261.64 223.608 261.955 223.048 262.24 222.273L262.678 221.08L257.03 205.727H259.575L263.791 217.898H263.95L268.166 205.727H270.712L264.229 223.227C263.937 224.016 263.576 224.669 263.145 225.186C262.714 225.71 262.214 226.098 261.643 226.349C261.08 226.601 260.444 226.727 259.734 226.727ZM291.886 209.148L289.778 209.744C289.646 209.393 289.45 209.052 289.191 208.72C288.94 208.382 288.595 208.104 288.157 207.885C287.72 207.666 287.16 207.557 286.477 207.557C285.542 207.557 284.763 207.772 284.14 208.203C283.524 208.627 283.216 209.168 283.216 209.824C283.216 210.407 283.428 210.868 283.852 211.206C284.276 211.544 284.939 211.826 285.841 212.051L288.108 212.608C289.473 212.939 290.491 213.446 291.16 214.129C291.83 214.805 292.164 215.677 292.164 216.744C292.164 217.619 291.913 218.402 291.409 219.091C290.912 219.78 290.216 220.324 289.321 220.722C288.426 221.119 287.385 221.318 286.199 221.318C284.641 221.318 283.352 220.98 282.331 220.304C281.31 219.628 280.664 218.64 280.392 217.341L282.619 216.784C282.831 217.606 283.232 218.223 283.822 218.634C284.419 219.045 285.198 219.25 286.159 219.25C287.253 219.25 288.121 219.018 288.764 218.554C289.414 218.083 289.738 217.52 289.738 216.864C289.738 216.333 289.553 215.889 289.182 215.531C288.81 215.167 288.24 214.895 287.471 214.716L284.926 214.119C283.527 213.788 282.5 213.274 281.843 212.578C281.194 211.875 280.869 210.997 280.869 209.943C280.869 209.081 281.111 208.319 281.595 207.656C282.085 206.993 282.752 206.473 283.593 206.095C284.442 205.717 285.403 205.528 286.477 205.528C287.988 205.528 289.175 205.86 290.037 206.523C290.905 207.186 291.521 208.061 291.886 209.148ZM299.883 221.358C298.915 221.358 298.037 221.176 297.248 220.811C296.459 220.44 295.833 219.906 295.369 219.21C294.905 218.508 294.673 217.659 294.673 216.665C294.673 215.79 294.845 215.08 295.19 214.537C295.535 213.987 295.995 213.556 296.572 213.244C297.149 212.933 297.785 212.701 298.481 212.548C299.184 212.389 299.89 212.263 300.599 212.17C301.527 212.051 302.279 211.962 302.856 211.902C303.439 211.836 303.864 211.726 304.129 211.574C304.401 211.421 304.537 211.156 304.537 210.778V210.699C304.537 209.718 304.268 208.955 303.731 208.412C303.201 207.868 302.395 207.597 301.315 207.597C300.195 207.597 299.316 207.842 298.68 208.332C298.044 208.823 297.596 209.347 297.338 209.903L295.11 209.108C295.508 208.18 296.038 207.457 296.701 206.94C297.371 206.417 298.1 206.052 298.889 205.847C299.684 205.634 300.466 205.528 301.235 205.528C301.726 205.528 302.289 205.588 302.926 205.707C303.569 205.82 304.189 206.055 304.785 206.413C305.388 206.771 305.889 207.312 306.287 208.034C306.684 208.757 306.883 209.724 306.883 210.938V221H304.537V218.932H304.417C304.258 219.263 303.993 219.618 303.622 219.996C303.251 220.374 302.757 220.695 302.14 220.96C301.524 221.225 300.771 221.358 299.883 221.358ZM300.241 219.25C301.169 219.25 301.951 219.068 302.588 218.703C303.231 218.339 303.715 217.868 304.039 217.291C304.371 216.714 304.537 216.108 304.537 215.472V213.324C304.437 213.443 304.218 213.553 303.88 213.652C303.549 213.745 303.164 213.828 302.727 213.901C302.296 213.967 301.875 214.027 301.464 214.08C301.06 214.126 300.732 214.166 300.48 214.199C299.87 214.278 299.3 214.408 298.769 214.587C298.246 214.759 297.822 215.021 297.497 215.372C297.179 215.717 297.019 216.187 297.019 216.784C297.019 217.599 297.321 218.216 297.924 218.634C298.534 219.045 299.306 219.25 300.241 219.25ZM322.8 205.727L317.152 221H314.766L309.118 205.727H311.664L315.879 217.898H316.039L320.254 205.727H322.8ZM331.446 221.318C329.974 221.318 328.705 220.993 327.638 220.344C326.577 219.688 325.758 218.773 325.182 217.599C324.611 216.42 324.326 215.047 324.326 213.483C324.326 211.919 324.611 210.54 325.182 209.347C325.758 208.147 326.56 207.212 327.588 206.543C328.622 205.866 329.828 205.528 331.207 205.528C332.003 205.528 332.788 205.661 333.564 205.926C334.339 206.191 335.045 206.622 335.682 207.219C336.318 207.809 336.825 208.591 337.203 209.565C337.581 210.54 337.77 211.74 337.77 213.165V214.159H325.997V212.131H335.383C335.383 211.269 335.211 210.5 334.866 209.824C334.528 209.148 334.044 208.614 333.415 208.223C332.791 207.832 332.056 207.636 331.207 207.636C330.272 207.636 329.464 207.868 328.781 208.332C328.105 208.79 327.584 209.386 327.22 210.122C326.855 210.858 326.673 211.647 326.673 212.489V213.841C326.673 214.994 326.872 215.972 327.27 216.774C327.674 217.57 328.234 218.176 328.95 218.594C329.666 219.005 330.498 219.21 331.446 219.21C332.062 219.21 332.619 219.124 333.116 218.952C333.62 218.773 334.054 218.508 334.419 218.156C334.783 217.798 335.065 217.354 335.264 216.824L337.531 217.46C337.292 218.229 336.891 218.905 336.328 219.489C335.764 220.065 335.068 220.516 334.24 220.841C333.411 221.159 332.48 221.318 331.446 221.318ZM346.798 221.318C345.526 221.318 344.402 220.997 343.428 220.354C342.453 219.704 341.691 218.789 341.141 217.609C340.59 216.423 340.315 215.021 340.315 213.403C340.315 211.799 340.59 210.407 341.141 209.227C341.691 208.047 342.456 207.136 343.437 206.493C344.419 205.85 345.552 205.528 346.838 205.528C347.832 205.528 348.618 205.694 349.195 206.026C349.778 206.35 350.222 206.722 350.527 207.139C350.839 207.55 351.08 207.888 351.253 208.153H351.452V200.636H353.798V221H351.531V218.653H351.253C351.08 218.932 350.835 219.283 350.517 219.707C350.199 220.125 349.745 220.5 349.155 220.831C348.565 221.156 347.779 221.318 346.798 221.318ZM347.116 219.21C348.058 219.21 348.853 218.965 349.503 218.474C350.152 217.977 350.646 217.291 350.984 216.416C351.322 215.535 351.491 214.517 351.491 213.364C351.491 212.223 351.326 211.226 350.994 210.371C350.663 209.509 350.172 208.839 349.523 208.362C348.873 207.878 348.071 207.636 347.116 207.636C346.122 207.636 345.294 207.892 344.631 208.402C343.974 208.906 343.481 209.592 343.149 210.46C342.824 211.322 342.662 212.29 342.662 213.364C342.662 214.451 342.828 215.438 343.159 216.327C343.497 217.208 343.994 217.911 344.651 218.435C345.313 218.952 346.135 219.21 347.116 219.21Z" fill="#999999"/>
<defs>
<filter id="filter0_bd_477_4361" x="35" y="0" width="336" height="270" filterUnits="userSpaceOnUse" color-interpolation-filters="sRGB">
<feFlood flood-opacity="0" result="BackgroundImageFix"/>
<feGaussianBlur in="BackgroundImageFix" stdDeviation="2.5"/>
<feComposite in2="SourceAlpha" operator="in" result="effect1_backgroundBlur_477_4361"/>
<feColorMatrix in="SourceAlpha" type="matrix" values="0 0 0 0 0 0 0 0 0 0 0 0 0 0 0 0 0 0 127 0" result="hardAlpha"/>
<feOffset/>
<feGaussianBlur stdDeviation="2.5"/>
<feComposite in2="hardAlpha" operator="out"/>
<feColorMatrix type="matrix" values="0 0 0 0 0 0 0 0 0 0 0 0 0 0 0 0 0 0 0.25 0"/>
<feBlend mode="normal" in2="effect1_backgroundBlur_477_4361" result="effect2_dropShadow_477_4361"/>
<feBlend mode="normal" in="SourceGraphic" in2="effect2_dropShadow_477_4361" result="shape"/>
</filter>
<linearGradient id="paint0_linear_477_4361" x1="182.205" y1="-76.9455" x2="410.235" y2="44.7483" gradientUnits="userSpaceOnUse">
<stop stop-color="#F4E6EC"/>
<stop offset="1" stop-color="#D1D2E6"/>
</linearGradient>
</defs>
</svg>
