<svg width="200" height="120" viewBox="0 0 352 270" fill="none" xmlns="http://www.w3.org/2000/svg">
<g filter="url(#filter0_bd_462_4352)">
<rect x="8" y="5" width="326" height="260" rx="40" fill="white" fill-opacity="0.8" shape-rendering="crispEdges"/>
<rect x="10.5" y="7.5" width="321" height="255" rx="37.5" stroke="url(#paint0_linear_462_4352)" stroke-opacity="0.5" stroke-width="5" shape-rendering="crispEdges"/>
</g>
<path d="M80.0911 206.152V203.8H91.6551C91.1791 202.54 90.6191 201.196 90.1151 200.048L92.7191 199.544C93.2791 200.832 93.8391 202.232 94.3991 203.716L94.0071 203.8H104.171V206.152H99.8311C98.7951 210.912 96.9751 214.552 94.0631 217.52C96.4711 219.34 99.7471 220.74 104.311 221.916L102.855 224.464C97.9831 222.896 94.5951 221.16 92.1311 219.256C89.6391 221.16 86.1951 222.924 81.4351 224.688C81.0711 224.044 80.4831 223.064 79.9791 222.252C84.5151 220.824 87.7911 219.284 90.1991 217.52C87.3991 214.608 85.3831 210.548 84.4031 206.152H80.0911ZM92.1311 215.896C94.8471 213.292 96.4711 210.044 97.1991 206.152H86.9511C87.7631 209.96 89.6111 213.404 92.1311 215.896ZM122.839 212.172C122.139 211.836 121.327 211.5 120.571 211.22C122.027 208.42 123.175 204.948 123.875 201.42L126.227 201.924C125.947 203.128 125.639 204.304 125.303 205.424H129.195V199.628H131.575V205.424H137.315V207.776H131.575V213.852H138.155V216.204H131.575V224.856H129.195V216.204H120.459V213.852H129.195V207.776H124.547C124.043 209.316 123.455 210.8 122.839 212.172ZM113.907 214.832C113.683 213.684 113.459 212.592 113.235 211.612C115.279 208.532 117.295 203.884 118.359 199.768L120.739 200.412C120.179 202.26 119.507 204.08 118.779 205.816V224.8H116.455V210.688C115.643 212.144 114.803 213.516 113.907 214.832ZM146.996 205.172V203.128H149.432C149.712 201.952 149.964 200.748 150.244 199.572L152.344 199.796L151.504 203.128H155.48V205.172H150.972C150.356 207.468 149.74 209.652 149.152 211.556H151.392V207.524H152.988V211.556H154.976V213.6H152.988V217.268C153.716 217.184 154.472 217.044 155.256 216.932C155.172 217.66 155.144 218.416 155.144 219.088L152.988 219.396V224.828H150.944V219.648C149.628 219.844 148.368 220.04 147.08 220.236L146.856 218.024L150.944 217.52V213.6H147.164V211.528C147.724 209.708 148.34 207.524 148.928 205.172H146.996ZM156.096 224.8V209.652H162.9V222.168C162.9 223.764 162.312 224.52 160.8 224.632C160.268 224.66 159.708 224.66 158.98 224.66C158.896 224.016 158.784 223.26 158.616 222.672C159.148 222.7 159.624 222.7 160.016 222.7C160.8 222.7 161.08 222.364 161.08 221.496V219.312H157.916V224.8H156.096ZM170.544 208.336C169.2 207.636 168.108 206.964 167.128 206.264V207.776H159.092V206.376C158.084 207.16 157.02 207.916 155.732 208.728C155.368 208.168 154.948 207.468 154.5 206.824C158.476 204.584 160.828 202.204 162.396 199.376L164.776 199.628C164.608 199.908 164.412 200.188 164.272 200.468C166.4 203.24 168.416 204.864 171.692 206.32L170.544 208.336ZM165.28 224.604C165.196 224.016 165.028 223.12 164.86 222.448C165.616 222.532 166.344 222.532 166.988 222.532C168.08 222.532 168.416 222.084 168.416 220.852V209.316H170.292V221.412C170.292 223.54 169.676 224.436 167.492 224.576C166.764 224.604 166.148 224.604 165.28 224.604ZM164.748 220.068V210.576H166.456V220.068H164.748ZM163.152 202.12C162.088 203.576 160.968 204.78 159.624 205.928H166.708C165.336 204.864 164.244 203.66 163.152 202.12ZM157.916 215.364V217.604H161.08V215.364H157.916ZM157.916 211.472V213.656H161.08V211.472H157.916ZM182.828 211.36V202.092H185.236V209.008H191.48V199.74H193.972V209.008H200.216V202.092H202.624V211.36H193.972V221.188H201.028V214.216H203.436V224.548H201.028V223.512H181.96V214.216H184.396V221.188H191.48V211.36H182.828ZM234.929 224.66C233.193 224.66 231.765 223.54 230.449 220.404C229.133 221.832 227.621 223.176 225.829 224.576C225.381 224.016 224.793 223.344 224.233 222.7C226.389 221.132 228.125 219.592 229.581 217.94C228.713 215 228.181 211.5 227.901 206.544H218.633V210.296H225.689C225.633 212.816 225.549 214.832 225.437 217.464C225.297 220.236 224.289 221.328 222.021 221.384C221.125 221.412 220.369 221.412 219.529 221.412C219.389 220.6 219.249 219.816 219.081 219.004C219.921 219.088 220.705 219.088 221.321 219.088C222.581 219.088 223.085 218.668 223.197 217.24C223.281 215.532 223.337 214.132 223.365 212.424H218.633C218.577 218.276 217.989 220.88 215.861 224.912L213.845 223.4C215.889 219.676 216.309 217.576 216.309 211.248V204.36H227.845C227.789 202.82 227.733 201.196 227.733 199.544H230.057C230.057 201.224 230.113 202.792 230.169 204.36H238.429V206.544H230.253C230.477 210.632 230.841 213.348 231.401 215.588C232.745 213.628 233.865 211.444 235.013 208.672L237.169 209.596C235.545 213.124 234.061 215.896 232.241 218.276C233.109 221.048 234.005 222.028 234.873 222.028C235.405 222.028 235.741 221.72 236.077 220.74C236.273 219.9 236.497 218.5 236.665 217.212C237.393 217.548 238.065 217.8 238.653 217.996C238.457 219.76 238.233 220.992 237.925 222.084C237.365 223.876 236.385 224.66 234.929 224.66ZM235.013 204.08C233.977 203.128 232.857 202.232 231.653 201.308L233.277 200.02C234.453 200.888 235.657 201.812 236.665 202.708L235.013 204.08ZM262.669 224.296C262.557 223.512 262.361 222.532 262.165 221.748C263.229 221.832 264.629 221.832 265.693 221.832C267.513 221.832 268.157 221.216 268.241 219.396C268.409 216.4 268.605 210.828 268.633 207.104H263.201L263.117 208.616C262.585 216.792 261.213 220.292 256.285 224.884C255.753 224.464 254.801 223.652 254.185 223.232C259.057 219.032 260.205 216.512 260.681 208.56L260.765 207.104H257.713V204.78H260.905C260.961 203.1 260.989 201.308 261.017 199.684H263.425C263.397 201.504 263.369 203.156 263.313 204.78H271.125C271.013 210.352 270.789 216.316 270.621 219.816C270.453 222.868 269.445 224.072 266.533 224.268C265.553 224.296 263.761 224.296 262.669 224.296ZM247.745 204.836V202.456H257.237V204.836H253.821V216.652L257.349 215.812C257.349 216.456 257.405 217.492 257.489 218.304C255.109 218.836 250.797 219.984 247.913 220.74L247.381 218.052C248.529 217.828 249.957 217.492 251.413 217.184V204.836H247.745Z" fill="#333333" fill-opacity="0.5"/>
<circle cx="176" cy="105" r="59" fill="#F00264" stroke="#F00264" stroke-width="2"/>
<path d="M157 102.143L169 117L193 91" stroke="white" stroke-width="10" stroke-linecap="round" stroke-linejoin="round"/>
<defs>
<filter id="filter0_bd_462_4352" x="3" y="0" width="336" height="270" filterUnits="userSpaceOnUse" color-interpolation-filters="sRGB">
<feFlood flood-opacity="0" result="BackgroundImageFix"/>
<feGaussianBlur in="BackgroundImageFix" stdDeviation="2.5"/>
<feComposite in2="SourceAlpha" operator="in" result="effect1_backgroundBlur_462_4352"/>
<feColorMatrix in="SourceAlpha" type="matrix" values="0 0 0 0 0 0 0 0 0 0 0 0 0 0 0 0 0 0 127 0" result="hardAlpha"/>
<feOffset/>
<feGaussianBlur stdDeviation="2.5"/>
<feComposite in2="hardAlpha" operator="out"/>
<feColorMatrix type="matrix" values="0 0 0 0 0 0 0 0 0 0 0 0 0 0 0 0 0 0 0.25 0"/>
<feBlend mode="normal" in2="effect1_backgroundBlur_462_4352" result="effect2_dropShadow_462_4352"/>
<feBlend mode="normal" in="SourceGraphic" in2="effect2_dropShadow_462_4352" result="shape"/>
</filter>
<linearGradient id="paint0_linear_462_4352" x1="150.205" y1="-76.9455" x2="378.235" y2="44.7483" gradientUnits="userSpaceOnUse">
<stop stop-color="#F4E6EC"/>
<stop offset="1" stop-color="#D1D2E6"/>
</linearGradient>
</defs>
</svg>
