<svg width="80" height="13" viewBox="0 0 80 13" fill="none" xmlns="http://www.w3.org/2000/svg">
<path d="M2.85137 8.72L2.14737 6.432L7.69937 0.799999H10.9154L2.85137 8.72ZM0.867374 12V0.799999H3.58737V12H0.867374ZM8.05137 12L3.89137 6.528L5.73137 4.944L11.2194 12H8.05137ZM15.5811 12.096C14.6531 12.096 13.8265 11.9093 13.1011 11.536C12.3758 11.152 11.8051 10.6293 11.3891 9.968C10.9838 9.30667 10.7811 8.54933 10.7811 7.696V0.799999H13.5331V7.552C13.5331 7.95733 13.6238 8.32533 13.8051 8.656C13.9865 8.976 14.2318 9.232 14.5411 9.424C14.8505 9.60533 15.1971 9.696 15.5811 9.696C15.9865 9.696 16.3438 9.60533 16.6531 9.424C16.9731 9.232 17.2291 8.976 17.4211 8.656C17.6131 8.32533 17.7091 7.95733 17.7091 7.552V0.799999H20.3651V7.696C20.3651 8.54933 20.1571 9.30667 19.7411 9.968C19.3358 10.6293 18.7705 11.152 18.0451 11.536C17.3198 11.9093 16.4985 12.096 15.5811 12.096ZM25.0512 12.16C24.3152 12.16 23.6486 12.0747 23.0512 11.904C22.4646 11.7227 21.9419 11.4667 21.4832 11.136C21.0246 10.7947 20.6139 10.3947 20.2512 9.936L21.8992 8.064C22.4326 8.77867 22.9659 9.25867 23.4992 9.504C24.0432 9.74933 24.6032 9.872 25.1792 9.872C25.4672 9.872 25.7286 9.83467 25.9632 9.76C26.1979 9.68533 26.3792 9.57867 26.5072 9.44C26.6352 9.29067 26.6992 9.10933 26.6992 8.896C26.6992 8.736 26.6566 8.592 26.5712 8.464C26.4966 8.336 26.3899 8.224 26.2512 8.128C26.1126 8.032 25.9472 7.94667 25.7552 7.872C25.5632 7.78667 25.3606 7.71733 25.1472 7.664C24.9339 7.6 24.7152 7.54667 24.4912 7.504C23.8726 7.36533 23.3339 7.19467 22.8752 6.992C22.4166 6.78933 22.0326 6.544 21.7232 6.256C21.4246 5.95733 21.2006 5.62133 21.0512 5.248C20.9019 4.864 20.8272 4.43733 20.8272 3.968C20.8272 3.46667 20.9392 3.008 21.1632 2.592C21.3979 2.16533 21.7072 1.80267 22.0912 1.504C22.4859 1.19467 22.9392 0.959999 23.4512 0.799999C23.9632 0.629333 24.4966 0.544 25.0512 0.544C25.7872 0.544 26.4166 0.624 26.9392 0.783999C27.4726 0.933333 27.9259 1.152 28.2992 1.44C28.6832 1.728 29.0086 2.07467 29.2752 2.48L27.5952 4.096C27.3712 3.81867 27.1259 3.58933 26.8592 3.408C26.6032 3.22667 26.3259 3.088 26.0272 2.992C25.7392 2.896 25.4406 2.848 25.1312 2.848C24.8112 2.848 24.5339 2.89067 24.2992 2.976C24.0752 3.05067 23.8992 3.16267 23.7712 3.312C23.6432 3.45067 23.5792 3.62133 23.5792 3.824C23.5792 4.00533 23.6326 4.16 23.7392 4.288C23.8459 4.416 23.9899 4.53333 24.1712 4.64C24.3526 4.736 24.5606 4.82133 24.7952 4.896C25.0299 4.96 25.2752 5.01333 25.5312 5.056C26.1179 5.17333 26.6459 5.328 27.1152 5.52C27.5952 5.712 28.0059 5.94667 28.3472 6.224C28.6992 6.50133 28.9659 6.832 29.1472 7.216C29.3392 7.58933 29.4352 8.02667 29.4352 8.528C29.4352 9.30667 29.2432 9.968 28.8592 10.512C28.4859 11.0453 27.9686 11.456 27.3072 11.744C26.6566 12.0213 25.9046 12.16 25.0512 12.16ZM36.8239 12V0.799999H39.5439V12H36.8239ZM29.8799 12V0.799999H32.5999V12H29.8799ZM30.9359 7.632L30.9519 5.2H38.2639V7.632H30.9359ZM45.4686 12.096C44.5406 12.096 43.714 11.9093 42.9886 11.536C42.2633 11.152 41.6926 10.6293 41.2766 9.968C40.8713 9.30667 40.6686 8.54933 40.6686 7.696V0.799999H43.4206V7.552C43.4206 7.95733 43.5113 8.32533 43.6926 8.656C43.874 8.976 44.1193 9.232 44.4286 9.424C44.738 9.60533 45.0846 9.696 45.4686 9.696C45.874 9.696 46.2313 9.60533 46.5406 9.424C46.8606 9.232 47.1166 8.976 47.3086 8.656C47.5006 8.32533 47.5966 7.95733 47.5966 7.552V0.799999H50.2526V7.696C50.2526 8.54933 50.0446 9.30667 49.6286 9.968C49.2233 10.6293 48.658 11.152 47.9326 11.536C47.2073 11.9093 46.386 12.096 45.4686 12.096ZM51.383 12V0.799999H54.103V9.6H59.095V12H51.383ZM58.109 12L62.541 0.799999H64.845L69.245 12H66.493L64.381 6.32C64.2957 6.096 64.2103 5.856 64.125 5.6C64.0397 5.344 63.9543 5.08267 63.869 4.816C63.7837 4.53867 63.6983 4.272 63.613 4.016C63.5383 3.74933 63.4743 3.504 63.421 3.28L63.901 3.264C63.837 3.53067 63.7623 3.792 63.677 4.048C63.6023 4.304 63.5223 4.56 63.437 4.816C63.3623 5.06133 63.277 5.312 63.181 5.568C63.085 5.81333 62.9943 6.06933 62.909 6.336L60.797 12H58.109ZM60.221 9.856L61.069 7.808H66.221L67.053 9.856H60.221ZM69.0424 12V0.799999H71.4744L77.3464 8.8L76.8184 8.72C76.765 8.368 76.7224 8.032 76.6904 7.712C76.6584 7.392 76.6264 7.07733 76.5944 6.768C76.573 6.45867 76.5517 6.144 76.5304 5.824C76.5197 5.504 76.509 5.15733 76.4984 4.784C76.4984 4.41067 76.4984 4.00533 76.4984 3.568V0.799999H79.1384V12H76.6744L70.5464 3.744L71.3624 3.856C71.4157 4.368 71.4584 4.80533 71.4904 5.168C71.533 5.52 71.565 5.83467 71.5864 6.112C71.6184 6.38933 71.6397 6.64 71.6504 6.864C71.661 7.088 71.6664 7.312 71.6664 7.536C71.677 7.74933 71.6824 7.98933 71.6824 8.256V12H69.0424Z" fill="#F00264"/>
</svg>
