<svg width="68" height="68" viewBox="0 0 68 68" fill="none" xmlns="http://www.w3.org/2000/svg">
<path d="M32.4077 34.2511C33.0206 32.8602 33.6728 31.3802 34 30C34.3272 31.3802 34.9794 32.8602 35.5923 34.2511C36.7336 36.841 37.7388 39.1222 36.2566 39.8756C35.2851 40.3694 34.3263 39.2748 34 38.6666C33.6737 39.2748 32.7149 40.3694 31.7434 39.8756C30.2612 39.1222 31.2664 36.841 32.4077 34.2511Z" fill="#FBB3D1"/>
<path d="M38 43.5C38 44.0909 37.8965 44.6761 37.6955 45.2221C37.4945 45.768 37.1999 46.2641 36.8284 46.682C36.457 47.0998 36.016 47.4313 35.5307 47.6575C35.0454 47.8836 34.5253 48 34 48C33.4747 48 32.9546 47.8836 32.4693 47.6575C31.984 47.4313 31.543 47.0998 31.1716 46.682C30.8001 46.2641 30.5055 45.768 30.3045 45.2221C30.1035 44.6761 30 44.0909 30 43.5L34 43.5H38Z" fill="#F00264"/>
<path fill-rule="evenodd" clip-rule="evenodd" d="M64.1405 49.7488C62.0011 48.3231 59.4315 47.4922 56.6678 47.4922C49.2164 47.4922 43.1758 53.5328 43.1758 60.9843C43.1758 62.9138 43.5808 64.7486 44.3105 66.4086C52.9058 63.6765 60.0194 57.6196 64.1405 49.7488Z" fill="#FBB3D1"/>
<path fill-rule="evenodd" clip-rule="evenodd" d="M23.6916 66.4096C24.4216 64.7494 24.8268 62.9141 24.8268 60.9843C24.8268 53.5328 18.7862 47.4922 11.3347 47.4922C8.56984 47.4922 5.99923 48.3238 3.85938 49.7506C7.98106 57.6215 15.0955 63.6782 23.6916 66.4096Z" fill="#FBB3D1"/>
<path d="M1 34C1 52.2254 15.7746 67 34 67C52.2254 67 67 52.2254 67 34C67 15.7746 52.2254 1 34 1C15.7746 1 1 15.7746 1 34Z" stroke="#F00264" stroke-width="2"/>
</svg>
