<svg width="100" height="40" viewBox="0 0 180 60" fill="none" xmlns="http://www.w3.org/2000/svg">
<rect width="180" height="60" rx="30" fill="#F00264"/>
<path d="M56.5932 39V22.2H59.8812L66.0012 32.16L63.8412 32.136L70.0332 22.2H73.1772V39H69.6492V33.24C69.6492 31.8 69.6812 30.504 69.7452 29.352C69.8252 28.2 69.9532 27.056 70.1292 25.92L70.5612 27.048L65.6412 34.68H64.0572L59.2332 27.096L59.6412 25.92C59.8172 26.992 59.9372 28.096 60.0012 29.232C60.0812 30.352 60.1212 31.688 60.1212 33.24V39H56.5932ZM81.5543 39.24C80.4983 39.24 79.5463 38.952 78.6983 38.376C77.8503 37.8 77.1783 37.016 76.6823 36.024C76.1863 35.032 75.9383 33.896 75.9383 32.616C75.9383 31.336 76.1863 30.208 76.6823 29.232C77.1943 28.24 77.8823 27.464 78.7463 26.904C79.6103 26.328 80.5943 26.04 81.6983 26.04C82.3223 26.04 82.8903 26.136 83.4023 26.328C83.9303 26.504 84.3863 26.752 84.7703 27.072C85.1703 27.392 85.5063 27.76 85.7783 28.176C86.0503 28.592 86.2423 29.04 86.3543 29.52L85.6343 29.4V26.304H89.0183V39H85.5863V35.952L86.3543 35.88C86.2263 36.328 86.0183 36.752 85.7303 37.152C85.4423 37.552 85.0823 37.912 84.6503 38.232C84.2343 38.536 83.7623 38.784 83.2343 38.976C82.7063 39.152 82.1463 39.24 81.5543 39.24ZM82.4903 36.288C83.1303 36.288 83.6903 36.136 84.1703 35.832C84.6503 35.528 85.0183 35.104 85.2743 34.56C85.5463 34 85.6823 33.352 85.6823 32.616C85.6823 31.896 85.5463 31.264 85.2743 30.72C85.0183 30.176 84.6503 29.752 84.1703 29.448C83.6903 29.128 83.1303 28.968 82.4903 28.968C81.8663 28.968 81.3143 29.128 80.8343 29.448C80.3703 29.752 80.0023 30.176 79.7303 30.72C79.4583 31.264 79.3223 31.896 79.3223 32.616C79.3223 33.352 79.4583 34 79.7303 34.56C80.0023 35.104 80.3703 35.528 80.8343 35.832C81.3143 36.136 81.8663 36.288 82.4903 36.288ZM97.9551 44.52C96.9471 44.52 95.9551 44.368 94.9791 44.064C94.0031 43.776 93.2111 43.4 92.6031 42.936L93.8031 40.488C94.1231 40.712 94.4911 40.912 94.9071 41.088C95.3231 41.264 95.7551 41.4 96.2031 41.496C96.6671 41.592 97.1391 41.64 97.6191 41.64C98.4511 41.64 99.1311 41.512 99.6591 41.256C100.203 41 100.611 40.616 100.883 40.104C101.155 39.608 101.291 38.968 101.291 38.184V35.976L101.867 36.096C101.771 36.624 101.507 37.112 101.075 37.56C100.643 37.992 100.099 38.344 99.4431 38.616C98.7871 38.872 98.1151 39 97.4271 39C96.2431 39 95.1951 38.728 94.2831 38.184C93.3711 37.64 92.6511 36.888 92.1231 35.928C91.5951 34.968 91.3311 33.864 91.3311 32.616C91.3311 31.336 91.5871 30.208 92.0991 29.232C92.6271 28.24 93.3391 27.464 94.2351 26.904C95.1471 26.328 96.1791 26.04 97.3311 26.04C97.8111 26.04 98.2671 26.096 98.6991 26.208C99.1471 26.32 99.5551 26.48 99.9231 26.688C100.307 26.88 100.643 27.104 100.931 27.36C101.235 27.6 101.483 27.864 101.675 28.152C101.867 28.44 101.987 28.728 102.035 29.016L101.339 29.208L101.435 26.304H104.699V38.04C104.699 39.08 104.547 40 104.243 40.8C103.939 41.6 103.491 42.272 102.899 42.816C102.323 43.376 101.611 43.8 100.763 44.088C99.9311 44.376 98.9951 44.52 97.9551 44.52ZM98.0511 36.264C98.7231 36.264 99.3071 36.112 99.8031 35.808C100.315 35.504 100.707 35.08 100.979 34.536C101.251 33.992 101.387 33.352 101.387 32.616C101.387 31.896 101.251 31.264 100.979 30.72C100.707 30.16 100.315 29.728 99.8031 29.424C99.3071 29.12 98.7231 28.968 98.0511 28.968C97.3951 28.968 96.8111 29.128 96.2991 29.448C95.8031 29.752 95.4191 30.176 95.1471 30.72C94.8751 31.264 94.7391 31.896 94.7391 32.616C94.7391 33.336 94.8751 33.976 95.1471 34.536C95.4191 35.08 95.8031 35.504 96.2991 35.808C96.8111 36.112 97.3951 36.264 98.0511 36.264ZM107.821 39V26.304H111.085L111.181 28.896L110.509 29.184C110.685 28.608 110.997 28.088 111.445 27.624C111.909 27.144 112.461 26.76 113.101 26.472C113.741 26.184 114.413 26.04 115.117 26.04C116.077 26.04 116.877 26.232 117.517 26.616C118.173 27 118.661 27.584 118.981 28.368C119.317 29.136 119.485 30.088 119.485 31.224V39H116.077V31.488C116.077 30.912 115.997 30.432 115.837 30.048C115.677 29.664 115.429 29.384 115.093 29.208C114.773 29.016 114.373 28.936 113.893 28.968C113.509 28.968 113.149 29.032 112.813 29.16C112.493 29.272 112.213 29.44 111.973 29.664C111.749 29.888 111.565 30.144 111.421 30.432C111.293 30.72 111.229 31.032 111.229 31.368V39H109.549C109.181 39 108.853 39 108.565 39C108.277 39 108.029 39 107.821 39ZM122.775 39V26.304H126.183V39H122.775ZM124.455 23.688C123.799 23.688 123.287 23.528 122.919 23.208C122.551 22.888 122.367 22.432 122.367 21.84C122.367 21.296 122.551 20.856 122.919 20.52C123.303 20.168 123.815 19.992 124.455 19.992C125.111 19.992 125.623 20.16 125.991 20.496C126.359 20.816 126.543 21.264 126.543 21.84C126.543 22.4 126.351 22.848 125.967 23.184C125.599 23.52 125.095 23.688 124.455 23.688ZM130.543 39V25.416C130.543 24.632 130.719 23.92 131.071 23.28C131.423 22.64 131.903 22.136 132.511 21.768C133.135 21.4 133.863 21.216 134.695 21.216C135.255 21.216 135.783 21.312 136.279 21.504C136.775 21.68 137.199 21.928 137.551 22.248L136.543 24.744C136.335 24.616 136.119 24.512 135.895 24.432C135.687 24.336 135.495 24.288 135.319 24.288C135.015 24.288 134.759 24.344 134.551 24.456C134.359 24.552 134.215 24.704 134.119 24.912C134.023 25.104 133.975 25.352 133.975 25.656V39H132.271C131.903 39 131.575 39 131.287 39C130.999 39 130.751 39 130.543 39ZM128.647 29.496V26.616H136.711V29.496H128.647ZM140.493 44.52L143.277 37.992L143.325 39.96L137.133 26.304H140.997L144.093 33.624C144.221 33.896 144.341 34.216 144.453 34.584C144.581 34.936 144.685 35.28 144.765 35.616L144.189 35.856C144.285 35.584 144.397 35.272 144.525 34.92C144.653 34.568 144.781 34.192 144.909 33.792L147.573 26.304H151.461L146.133 39L143.949 44.52H140.493Z" fill="white"/>
<path d="M43.2508 28.1238C43.2508 29.9165 42.6687 31.5725 41.6882 32.9161L46.6338 37.8646C47.1221 38.3528 47.1221 39.1456 46.6338 39.6338C46.1455 40.1221 45.3525 40.1221 44.8642 39.6338L39.9186 34.6853C38.5748 35.6696 36.9185 36.2476 35.1254 36.2476C30.6369 36.2476 27 32.6114 27 28.1238C27 23.6362 30.6369 20 35.1254 20C39.6139 20 43.2508 23.6362 43.2508 28.1238ZM34.1879 31.5608C34.1879 32.0803 34.6058 32.4982 35.1254 32.4982C35.645 32.4982 36.0629 32.0803 36.0629 31.5608V29.0612H38.5631C39.0826 29.0612 39.5006 28.6433 39.5006 28.1238C39.5006 27.6044 39.0826 27.1864 38.5631 27.1864H36.0629V24.6868C36.0629 24.1674 35.645 23.7495 35.1254 23.7495C34.6058 23.7495 34.1879 24.1674 34.1879 24.6868V27.1864H31.6877C31.1682 27.1864 30.7502 27.6044 30.7502 28.1238C30.7502 28.6433 31.1682 29.0612 31.6877 29.0612H34.1879V31.5608Z" fill="white"/>
</svg>
