<svg width="100" height="40" viewBox="0 0 180 60" fill="none" xmlns="http://www.w3.org/2000/svg">
<rect width="180" height="60" rx="30" fill="#F00264"/>
<path d="M35.6033 18.817C35.9701 18.0737 37.0299 18.0737 37.3967 18.817L39.941 23.9722C40.0866 24.2673 40.3682 24.4719 40.6939 24.5192L46.383 25.3459C47.2033 25.4651 47.5308 26.4731 46.9373 27.0516L42.8206 31.0644C42.5849 31.2941 42.4773 31.6251 42.533 31.9495L43.5048 37.6157C43.6449 38.4326 42.7875 39.0555 42.0538 38.6698L36.9653 35.9946C36.674 35.8415 36.326 35.8415 36.0347 35.9946L30.9462 38.6698C30.2125 39.0555 29.3551 38.4326 29.4952 37.6157L30.467 31.9495C30.5227 31.6251 30.4151 31.2941 30.1794 31.0644L26.0627 27.0516C25.4692 26.4731 25.7967 25.4651 26.617 25.3459L32.3061 24.5192C32.6318 24.4719 32.9134 24.2673 33.059 23.9722L35.6033 18.817Z" fill="white"/>
<path d="M75.1045 39.24C74.0645 39.24 73.1125 39.112 72.2485 38.856C71.4005 38.6 70.6405 38.224 69.9685 37.728C69.3125 37.232 68.7205 36.632 68.1925 35.928L70.4485 33.36C71.2325 34.448 72.0085 35.192 72.7765 35.592C73.5605 35.976 74.4085 36.168 75.3205 36.168C75.8165 36.168 76.2565 36.104 76.6405 35.976C77.0405 35.832 77.3525 35.632 77.5765 35.376C77.8005 35.12 77.9125 34.816 77.9125 34.464C77.9125 34.208 77.8565 33.976 77.7445 33.768C77.6325 33.544 77.4725 33.352 77.2645 33.192C77.0565 33.016 76.8085 32.864 76.5205 32.736C76.2325 32.592 75.9125 32.472 75.5605 32.376C75.2085 32.264 74.8245 32.176 74.4085 32.112C73.5125 31.904 72.7285 31.656 72.0565 31.368C71.3845 31.064 70.8245 30.696 70.3765 30.264C69.9285 29.816 69.5925 29.312 69.3685 28.752C69.1605 28.192 69.0565 27.56 69.0565 26.856C69.0565 26.136 69.2165 25.472 69.5365 24.864C69.8565 24.24 70.2965 23.704 70.8565 23.256C71.4325 22.808 72.0885 22.464 72.8245 22.224C73.5765 21.984 74.3685 21.864 75.2005 21.864C76.2245 21.864 77.1205 21.984 77.8885 22.224C78.6565 22.448 79.3205 22.776 79.8805 23.208C80.4565 23.64 80.9365 24.168 81.3205 24.792L79.0405 27C78.7045 26.552 78.3365 26.176 77.9365 25.872C77.5525 25.568 77.1285 25.344 76.6645 25.2C76.2165 25.04 75.7525 24.96 75.2725 24.96C74.7445 24.96 74.2885 25.032 73.9045 25.176C73.5205 25.304 73.2165 25.496 72.9925 25.752C72.7845 26.008 72.6805 26.32 72.6805 26.688C72.6805 26.976 72.7525 27.232 72.8965 27.456C73.0405 27.68 73.2485 27.88 73.5205 28.056C73.7925 28.216 74.1205 28.36 74.5045 28.488C74.8885 28.616 75.3125 28.728 75.7765 28.824C76.6565 29 77.4485 29.232 78.1525 29.52C78.8565 29.808 79.4565 30.16 79.9525 30.576C80.4645 30.976 80.8565 31.456 81.1285 32.016C81.4005 32.56 81.5365 33.176 81.5365 33.864C81.5365 35 81.2645 35.968 80.7205 36.768C80.1765 37.568 79.4245 38.184 78.4645 38.616C77.5045 39.032 76.3845 39.24 75.1045 39.24ZM90.0771 39.24C88.7011 39.24 87.5011 38.96 86.4771 38.4C85.4531 37.84 84.6531 37.072 84.0771 36.096C83.5011 35.12 83.2131 34 83.2131 32.736C83.2131 31.76 83.3731 30.864 83.6931 30.048C84.0131 29.232 84.4611 28.528 85.0371 27.936C85.6131 27.328 86.2931 26.864 87.0771 26.544C87.8771 26.208 88.7411 26.04 89.6691 26.04C90.5331 26.04 91.3331 26.2 92.0691 26.52C92.8051 26.824 93.4371 27.264 93.9651 27.84C94.5091 28.4 94.9251 29.064 95.2131 29.832C95.5011 30.6 95.6291 31.44 95.5971 32.352L95.5731 33.408H85.3731L84.8211 31.32H92.7651L92.3811 31.752V31.224C92.3491 30.792 92.2051 30.4 91.9491 30.048C91.7091 29.696 91.3971 29.424 91.0131 29.232C90.6291 29.04 90.1971 28.944 89.7171 28.944C89.0131 28.944 88.4131 29.08 87.9171 29.352C87.4371 29.624 87.0691 30.024 86.8131 30.552C86.5571 31.08 86.4291 31.72 86.4291 32.472C86.4291 33.24 86.5891 33.904 86.9091 34.464C87.2451 35.024 87.7091 35.464 88.3011 35.784C88.9091 36.088 89.6211 36.24 90.4371 36.24C90.9971 36.24 91.5091 36.152 91.9731 35.976C92.4371 35.8 92.9331 35.496 93.4611 35.064L95.0931 37.344C94.6291 37.76 94.1171 38.112 93.5571 38.4C92.9971 38.672 92.4211 38.88 91.8291 39.024C91.2371 39.168 90.6531 39.24 90.0771 39.24ZM97.8756 39V21.24H101.284V39H97.8756ZM110.268 39.24C108.892 39.24 107.692 38.96 106.668 38.4C105.644 37.84 104.844 37.072 104.268 36.096C103.692 35.12 103.404 34 103.404 32.736C103.404 31.76 103.564 30.864 103.884 30.048C104.204 29.232 104.652 28.528 105.228 27.936C105.804 27.328 106.484 26.864 107.268 26.544C108.068 26.208 108.932 26.04 109.86 26.04C110.724 26.04 111.524 26.2 112.26 26.52C112.996 26.824 113.628 27.264 114.156 27.84C114.7 28.4 115.116 29.064 115.404 29.832C115.692 30.6 115.82 31.44 115.788 32.352L115.764 33.408H105.564L105.012 31.32H112.956L112.572 31.752V31.224C112.54 30.792 112.396 30.4 112.14 30.048C111.9 29.696 111.588 29.424 111.204 29.232C110.82 29.04 110.388 28.944 109.908 28.944C109.204 28.944 108.604 29.08 108.108 29.352C107.628 29.624 107.26 30.024 107.004 30.552C106.748 31.08 106.62 31.72 106.62 32.472C106.62 33.24 106.78 33.904 107.1 34.464C107.436 35.024 107.9 35.464 108.492 35.784C109.1 36.088 109.812 36.24 110.628 36.24C111.188 36.24 111.7 36.152 112.164 35.976C112.628 35.8 113.124 35.496 113.652 35.064L115.284 37.344C114.82 37.76 114.308 38.112 113.748 38.4C113.188 38.672 112.612 38.88 112.02 39.024C111.428 39.168 110.844 39.24 110.268 39.24ZM123.562 39.24C122.346 39.24 121.258 38.952 120.298 38.376C119.338 37.8 118.578 37.016 118.018 36.024C117.474 35.032 117.202 33.904 117.202 32.64C117.202 31.392 117.474 30.272 118.018 29.28C118.578 28.272 119.338 27.48 120.298 26.904C121.258 26.328 122.346 26.04 123.562 26.04C124.698 26.04 125.738 26.248 126.682 26.664C127.626 27.08 128.362 27.656 128.89 28.392L127.018 30.648C126.794 30.344 126.514 30.072 126.178 29.832C125.842 29.576 125.474 29.376 125.074 29.232C124.69 29.088 124.29 29.016 123.874 29.016C123.218 29.016 122.634 29.176 122.122 29.496C121.626 29.8 121.234 30.224 120.946 30.768C120.658 31.312 120.514 31.936 120.514 32.64C120.514 33.328 120.658 33.944 120.946 34.488C121.25 35.016 121.658 35.448 122.17 35.784C122.682 36.104 123.258 36.264 123.898 36.264C124.314 36.264 124.706 36.208 125.074 36.096C125.442 35.968 125.786 35.784 126.106 35.544C126.442 35.304 126.746 35.016 127.018 34.68L128.866 36.936C128.322 37.624 127.57 38.184 126.61 38.616C125.65 39.032 124.634 39.24 123.562 39.24ZM132.01 39V23.088H135.418V39H132.01ZM129.634 29.352V26.304H138.01V29.352H129.634Z" fill="white"/>
</svg>
