<svg width="100" height="40" viewBox="0 0 180 60" fill="none" xmlns="http://www.w3.org/2000/svg">
<rect width="180" height="60" rx="30" fill="#F00264"/>
<path d="M59.1762 39L52.4802 22.2H56.2962L59.8002 31.296C59.9922 31.792 60.1522 32.232 60.2802 32.616C60.4242 32.984 60.5442 33.336 60.6402 33.672C60.7522 33.992 60.8562 34.312 60.9522 34.632C61.0482 34.936 61.1442 35.272 61.2402 35.64L60.5442 35.664C60.6722 35.168 60.8002 34.712 60.9282 34.296C61.0562 33.864 61.2002 33.416 61.3602 32.952C61.5202 32.488 61.7202 31.936 61.9602 31.296L65.2722 22.2H69.0642L62.3202 39H59.1762ZM74.0878 39.24C73.0318 39.24 72.0798 38.952 71.2318 38.376C70.3838 37.8 69.7118 37.016 69.2158 36.024C68.7198 35.032 68.4718 33.896 68.4718 32.616C68.4718 31.336 68.7198 30.208 69.2158 29.232C69.7278 28.24 70.4158 27.464 71.2798 26.904C72.1438 26.328 73.1278 26.04 74.2318 26.04C74.8558 26.04 75.4238 26.136 75.9358 26.328C76.4638 26.504 76.9198 26.752 77.3038 27.072C77.7038 27.392 78.0398 27.76 78.3118 28.176C78.5838 28.592 78.7758 29.04 78.8878 29.52L78.1678 29.4V26.304H81.5518V39H78.1198V35.952L78.8878 35.88C78.7598 36.328 78.5518 36.752 78.2638 37.152C77.9758 37.552 77.6158 37.912 77.1838 38.232C76.7678 38.536 76.2958 38.784 75.7678 38.976C75.2398 39.152 74.6798 39.24 74.0878 39.24ZM75.0238 36.288C75.6638 36.288 76.2238 36.136 76.7038 35.832C77.1838 35.528 77.5518 35.104 77.8078 34.56C78.0798 34 78.2158 33.352 78.2158 32.616C78.2158 31.896 78.0798 31.264 77.8078 30.72C77.5518 30.176 77.1838 29.752 76.7038 29.448C76.2238 29.128 75.6638 28.968 75.0238 28.968C74.3998 28.968 73.8478 29.128 73.3678 29.448C72.9038 29.752 72.5358 30.176 72.2638 30.72C71.9918 31.264 71.8558 31.896 71.8558 32.616C71.8558 33.352 71.9918 34 72.2638 34.56C72.5358 35.104 72.9038 35.528 73.3678 35.832C73.8478 36.136 74.3998 36.288 75.0238 36.288ZM84.7047 39V26.304H87.9927L88.1127 30.384L87.5367 29.544C87.7287 28.888 88.0407 28.296 88.4727 27.768C88.9047 27.224 89.4087 26.8 89.9847 26.496C90.5767 26.192 91.1927 26.04 91.8327 26.04C92.1047 26.04 92.3687 26.064 92.6247 26.112C92.8807 26.16 93.0967 26.216 93.2727 26.28L92.3607 30.024C92.1687 29.928 91.9367 29.848 91.6647 29.784C91.3927 29.704 91.1127 29.664 90.8247 29.664C90.4407 29.664 90.0807 29.736 89.7447 29.88C89.4247 30.008 89.1447 30.2 88.9047 30.456C88.6647 30.696 88.4727 30.984 88.3287 31.32C88.2007 31.656 88.1367 32.024 88.1367 32.424V39H84.7047ZM95.2521 39V26.304H98.6601V39H95.2521ZM96.9321 23.688C96.2761 23.688 95.7641 23.528 95.3961 23.208C95.0281 22.888 94.8441 22.432 94.8441 21.84C94.8441 21.296 95.0281 20.856 95.3961 20.52C95.7801 20.168 96.2921 19.992 96.9321 19.992C97.5881 19.992 98.1001 20.16 98.4681 20.496C98.8361 20.816 99.0201 21.264 99.0201 21.84C99.0201 22.4 98.8281 22.848 98.4441 23.184C98.0761 23.52 97.5721 23.688 96.9321 23.688ZM106.788 39.24C105.732 39.24 104.78 38.952 103.932 38.376C103.084 37.8 102.412 37.016 101.916 36.024C101.42 35.032 101.172 33.896 101.172 32.616C101.172 31.336 101.42 30.208 101.916 29.232C102.428 28.24 103.116 27.464 103.98 26.904C104.844 26.328 105.828 26.04 106.932 26.04C107.556 26.04 108.124 26.136 108.636 26.328C109.164 26.504 109.62 26.752 110.004 27.072C110.404 27.392 110.74 27.76 111.012 28.176C111.284 28.592 111.476 29.04 111.588 29.52L110.868 29.4V26.304H114.252V39H110.82V35.952L111.588 35.88C111.46 36.328 111.252 36.752 110.964 37.152C110.676 37.552 110.316 37.912 109.884 38.232C109.468 38.536 108.996 38.784 108.468 38.976C107.94 39.152 107.38 39.24 106.788 39.24ZM107.724 36.288C108.364 36.288 108.924 36.136 109.404 35.832C109.884 35.528 110.252 35.104 110.508 34.56C110.78 34 110.916 33.352 110.916 32.616C110.916 31.896 110.78 31.264 110.508 30.72C110.252 30.176 109.884 29.752 109.404 29.448C108.924 29.128 108.364 28.968 107.724 28.968C107.1 28.968 106.548 29.128 106.068 29.448C105.604 29.752 105.236 30.176 104.964 30.72C104.692 31.264 104.556 31.896 104.556 32.616C104.556 33.352 104.692 34 104.964 34.56C105.236 35.104 105.604 35.528 106.068 35.832C106.548 36.136 107.1 36.288 107.724 36.288ZM118.629 39V23.088H122.037V39H118.629ZM116.253 29.352V26.304H124.629V29.352H116.253ZM126.874 39V26.304H130.282V39H126.874ZM128.554 23.688C127.898 23.688 127.386 23.528 127.018 23.208C126.65 22.888 126.466 22.432 126.466 21.84C126.466 21.296 126.65 20.856 127.018 20.52C127.402 20.168 127.914 19.992 128.554 19.992C129.21 19.992 129.722 20.16 130.09 20.496C130.458 20.816 130.642 21.264 130.642 21.84C130.642 22.4 130.45 22.848 130.066 23.184C129.698 23.52 129.194 23.688 128.554 23.688ZM139.562 39.24C138.266 39.24 137.106 38.96 136.082 38.4C135.074 37.824 134.274 37.04 133.682 36.048C133.106 35.056 132.818 33.92 132.818 32.64C132.818 31.36 133.106 30.232 133.682 29.256C134.274 28.264 135.074 27.48 136.082 26.904C137.106 26.328 138.266 26.04 139.562 26.04C140.842 26.04 141.986 26.328 142.994 26.904C144.018 27.48 144.818 28.264 145.394 29.256C145.97 30.232 146.258 31.36 146.258 32.64C146.258 33.92 145.97 35.056 145.394 36.048C144.818 37.04 144.018 37.824 142.994 38.4C141.986 38.96 140.842 39.24 139.562 39.24ZM139.562 36.264C140.186 36.264 140.746 36.112 141.242 35.808C141.738 35.488 142.122 35.056 142.394 34.512C142.682 33.952 142.826 33.328 142.826 32.64C142.826 31.936 142.682 31.312 142.394 30.768C142.122 30.208 141.738 29.776 141.242 29.472C140.746 29.152 140.186 28.992 139.562 28.992C138.922 28.992 138.354 29.152 137.858 29.472C137.362 29.792 136.97 30.224 136.682 30.768C136.394 31.312 136.258 31.936 136.274 32.64C136.258 33.328 136.394 33.952 136.682 34.512C136.97 35.056 137.362 35.488 137.858 35.808C138.354 36.112 138.922 36.264 139.562 36.264ZM148.558 39V26.304H151.822L151.918 28.896L151.246 29.184C151.422 28.608 151.734 28.088 152.182 27.624C152.646 27.144 153.198 26.76 153.838 26.472C154.478 26.184 155.15 26.04 155.854 26.04C156.814 26.04 157.614 26.232 158.254 26.616C158.91 27 159.398 27.584 159.718 28.368C160.054 29.136 160.222 30.088 160.222 31.224V39H156.814V31.488C156.814 30.912 156.734 30.432 156.574 30.048C156.414 29.664 156.166 29.384 155.83 29.208C155.51 29.016 155.11 28.936 154.63 28.968C154.246 28.968 153.886 29.032 153.55 29.16C153.23 29.272 152.95 29.44 152.71 29.664C152.486 29.888 152.302 30.144 152.158 30.432C152.03 30.72 151.966 31.032 151.966 31.368V39H150.286C149.918 39 149.59 39 149.302 39C149.014 39 148.766 39 148.558 39Z" fill="white"/>
<path fill-rule="evenodd" clip-rule="evenodd" d="M40.5912 23.6261C39.3176 22.7095 37.7988 22.1953 36.2304 22.1497C34.662 22.1041 33.1159 22.5292 31.7913 23.3703C30.4666 24.2113 29.4242 25.4298 28.7984 26.8687C28.1725 28.3075 27.9919 29.9008 28.2797 31.4433C28.3272 31.7204 28.2638 32.005 28.1032 32.2358C27.9427 32.4666 27.6978 32.6251 27.4215 32.677C27.1452 32.7289 26.8596 32.6702 26.6262 32.5134C26.3928 32.3566 26.2304 32.1144 26.174 31.839C25.8017 29.8466 26.0438 27.7882 26.868 25.9365C27.6922 24.0849 29.0597 22.5274 30.7892 21.4706C32.5187 20.4138 34.5285 19.9076 36.5523 20.019C38.5761 20.1305 40.5182 20.8544 42.1212 22.0947L42.9954 21.2204C43.0953 21.1203 43.2225 21.0521 43.3611 21.0244C43.4997 20.9967 43.6434 21.0107 43.774 21.0647C43.9046 21.1187 44.0163 21.2102 44.0949 21.3277C44.1735 21.4452 44.2154 21.5834 44.2154 21.7247V25.0004C44.2154 25.1898 44.1402 25.3715 44.0062 25.5055C43.8723 25.6394 43.6906 25.7147 43.5012 25.7147H40.2254C40.0844 25.7144 39.9466 25.6723 39.8294 25.5938C39.7123 25.5153 39.621 25.4039 39.567 25.2735C39.5131 25.1432 39.4989 24.9998 39.5264 24.8615C39.5538 24.7231 39.6216 24.596 39.7212 24.4961L40.5912 23.6261ZM44.5783 27.3075C44.8575 27.2549 45.1463 27.3153 45.3809 27.4755C45.6156 27.6357 45.7771 27.8826 45.8297 28.1618C46.2023 30.1544 45.9605 32.2132 45.1362 34.0652C44.312 35.9171 42.9443 37.4748 41.2145 38.5317C39.4847 39.5886 37.4745 40.0947 35.4504 39.983C33.4264 39.8713 31.4841 39.147 29.8812 37.9061L29.0069 38.7818C28.907 38.882 28.7796 38.9502 28.6409 38.9779C28.5021 39.0056 28.3583 38.9914 28.2276 38.9372C28.097 38.8831 27.9853 38.7913 27.9068 38.6736C27.8284 38.5559 27.7866 38.4176 27.7869 38.2761V35.0004C27.7869 34.811 27.8621 34.6293 27.9961 34.4953C28.13 34.3614 28.3117 34.2861 28.5012 34.2861H31.7769C31.9183 34.2859 32.0567 34.3276 32.1744 34.4061C32.2921 34.4846 32.3838 34.5962 32.438 34.7269C32.4922 34.8576 32.5063 35.0014 32.4786 35.1401C32.451 35.2788 32.3827 35.4062 32.2826 35.5061L31.4112 36.3761C32.6847 37.2927 34.2035 37.8069 35.7719 37.8525C37.3403 37.8981 38.8865 37.473 40.2111 36.632C41.5357 35.7909 42.5781 34.5724 43.2039 33.1336C43.8298 31.6947 44.0104 30.1014 43.7226 28.559C43.6965 28.4205 43.6981 28.2783 43.7271 28.1404C43.7561 28.0025 43.812 27.8717 43.8916 27.7555C43.9712 27.6392 44.073 27.5398 44.1911 27.463C44.3091 27.3861 44.4412 27.3333 44.5797 27.3075H44.5783ZM34.8312 25.7633C35.1026 24.5204 36.8697 24.5147 37.1526 25.7518L37.1669 25.8147C37.3197 26.5753 37.6988 27.2719 38.2546 27.8131C38.8104 28.3544 39.5168 28.715 40.2812 28.8475C41.5726 29.0718 41.5726 30.929 40.2797 31.1533C39.5326 31.2832 38.8406 31.6311 38.2905 32.1532C37.7405 32.6752 37.357 33.3482 37.1883 34.0875L37.1526 34.249C36.8697 35.4875 35.1026 35.479 34.8312 34.239L34.8012 34.1004C34.6387 33.3586 34.259 32.682 33.7104 32.1568C33.1619 31.6317 32.4694 31.2818 31.7212 31.1518C30.4312 30.9275 30.4312 29.0747 31.7212 28.8504C32.4669 28.7205 33.1573 28.3722 33.7048 27.8496C34.2524 27.327 34.6324 26.6535 34.7969 25.9147L34.8197 25.8133L34.8312 25.7633Z" fill="white"/>
</svg>
