<svg width="25" height="25" viewBox="0 0 25 25" fill="none" xmlns="http://www.w3.org/2000/svg">
<path d="M23.8095 0.00347174C23.4938 0.00347174 23.191 0.128879 22.9677 0.352106C22.7445 0.575332 22.619 0.878093 22.619 1.19378C21.7193 0.517709 20.6463 0.11054 19.5245 0.0195077C18.4027 -0.0715248 17.2781 0.15731 16.2811 0.679467C15.2841 1.20162 14.4556 1.9957 13.8917 2.96959C13.3277 3.94349 13.0515 5.05728 13.0951 6.18177C13.1386 7.30626 13.5001 8.39537 14.1376 9.32276C14.7751 10.2501 15.6626 10.9778 16.697 11.4213C17.7313 11.8649 18.8703 12.0061 19.9817 11.8286C21.0931 11.6512 22.1314 11.1623 22.9762 10.4187C23.2146 10.2103 23.3604 9.91583 23.3816 9.59997C23.4028 9.2841 23.2977 8.97275 23.0893 8.7344C22.8809 8.49606 22.5864 8.35024 22.2704 8.32903C21.9545 8.30783 21.6431 8.41297 21.4048 8.62132C20.876 9.088 20.2208 9.38769 19.522 9.4826C18.8231 9.57751 18.1117 9.46338 17.4776 9.15462C16.8435 8.84585 16.315 8.35627 15.9588 7.74761C15.6026 7.13894 15.4346 6.43845 15.4761 5.73446C15.5175 5.03047 15.7664 4.3545 16.1916 3.79179C16.6167 3.22908 17.1989 2.80483 17.8648 2.57253C18.5308 2.34022 19.2506 2.31027 19.9336 2.48645C20.6165 2.66263 21.232 3.03705 21.7024 3.5625H20.2381C19.9224 3.5625 19.6196 3.68791 19.3963 3.91113C19.173 4.13436 19.0476 4.43712 19.0476 4.75281C19.0476 5.0685 19.173 5.37126 19.3963 5.59449C19.6196 5.81772 19.9224 5.94312 20.2381 5.94312H23.8095C24.1253 5.94312 24.4281 5.81772 24.6513 5.59449C24.8746 5.37126 25 5.0685 25 4.75281V1.18188C24.9969 0.868257 24.8701 0.568545 24.6471 0.347887C24.4242 0.127228 24.1232 0.00345605 23.8095 0.00347174ZM20.2381 14.2872C19.9224 14.2872 19.6196 14.4126 19.3963 14.6358C19.173 14.8591 19.0476 15.1618 19.0476 15.4775V15.9417L17.2619 14.1801C16.9554 13.8716 16.591 13.6269 16.1895 13.4598C15.788 13.2928 15.3575 13.2068 14.9226 13.2068C14.4878 13.2068 14.0572 13.2928 13.6558 13.4598C13.2543 13.6269 12.8898 13.8716 12.5833 14.1801L11.75 15.0133L8.82143 12.0494C8.19931 11.4323 7.35848 11.086 6.48214 11.086C5.6058 11.086 4.76497 11.4323 4.14286 12.0494L2.38095 13.8111V7.14534C2.38095 6.82965 2.50638 6.52689 2.72963 6.30366C2.95289 6.08043 3.25569 5.95503 3.57143 5.95503H9.52381C9.83954 5.95503 10.1423 5.82962 10.3656 5.60639C10.5889 5.38317 10.7143 5.08041 10.7143 4.76472C10.7143 4.44903 10.5889 4.14627 10.3656 3.92304C10.1423 3.69981 9.83954 3.5744 9.52381 3.5744H3.57143C2.62423 3.5744 1.71582 3.95063 1.04605 4.62031C0.376275 5.28999 0 6.19827 0 7.14534V21.4291C0 22.3761 0.376275 23.2844 1.04605 23.9541C1.71582 24.6238 2.62423 25 3.57143 25H17.8571C18.8043 25 19.7128 24.6238 20.3825 23.9541C21.0523 23.2844 21.4286 22.3761 21.4286 21.4291V15.4775C21.4286 15.1618 21.3031 14.8591 21.0799 14.6358C20.8566 14.4126 20.5538 14.2872 20.2381 14.2872ZM3.57143 22.6194C3.25569 22.6194 2.95289 22.494 2.72963 22.2707C2.50638 22.0475 2.38095 21.7448 2.38095 21.4291V17.1797L5.83333 13.692C6.00823 13.5254 6.24055 13.4324 6.48214 13.4324C6.72373 13.4324 6.95606 13.5254 7.13095 13.692L10.9048 17.4653L16.0714 22.6194H3.57143ZM19.0476 21.4291C19.0377 21.6555 18.9634 21.8743 18.8333 22.0599L13.4643 16.6916L14.2976 15.8584C14.4716 15.6854 14.707 15.5883 14.9524 15.5883C15.1978 15.5883 15.4332 15.6854 15.6071 15.8584L19.0476 19.3103V21.4291Z" fill="#3A3A3A"/>
</svg>
